<?xml version="1.0" encoding="UTF-8" standalone="no"?><svg xmlns="http://www.w3.org/2000/svg" xmlns:xlink="http://www.w3.org/1999/xlink" width="48" height="48"><defs><linearGradient id="i" x1="29.127" x2="29.291" y1="19.788" y2="57.567" gradientTransform="matrix(1.03685 0 -.00451 1.0846 -6.11 -18.45)" gradientUnits="userSpaceOnUse" xlink:href="#a"/><linearGradient id="a"><stop offset="0" stop-color="#fff"/><stop offset=".569" stop-color="#fff" stop-opacity=".235"/><stop offset=".933" stop-color="#fff" stop-opacity=".157"/><stop offset="1" stop-color="#fff" stop-opacity=".392"/></linearGradient><linearGradient id="h" x1="24" x2="24" y1="1.638" y2="44.988" gradientTransform="matrix(.97782 0 0 .9768 .532 .985)" gradientUnits="userSpaceOnUse" xlink:href="#b"/><radialGradient id="g" cx="605.714" cy="486.648" r="117.143" fx="605.714" fy="486.648" gradientTransform="matrix(.0241 0 0 .01544 28.978 36.589)" gradientUnits="userSpaceOnUse" xlink:href="#c"/><linearGradient id="c"><stop offset="0"/><stop offset="1" stop-opacity="0"/></linearGradient><radialGradient id="f" cx="605.714" cy="486.648" r="117.143" fx="605.714" fy="486.648" gradientTransform="matrix(-.0241 0 0 .01544 19.023 36.589)" gradientUnits="userSpaceOnUse" xlink:href="#c"/><linearGradient id="d"><stop offset="0" stop-opacity="0"/><stop offset=".5"/><stop offset="1" stop-opacity="0"/></linearGradient><linearGradient id="e" x1="302.857" x2="302.857" y1="366.648" y2="609.505" gradientTransform="matrix(.08077 0 0 .01544 -5.192 36.589)" gradientUnits="userSpaceOnUse" xlink:href="#d"/><linearGradient id="b"><stop offset="0" stop-color="#ffe16b"/><stop offset="1" stop-color="#f9c440"/></linearGradient></defs><rect width="39" height="3.75" x="4.5" y="42.25" fill="url(#e)" opacity=".3"/><path fill="url(#f)" d="M4.5 42.25V46c-1.24.007-3-.84-3-1.875 0-1.035 1.385-1.875 3-1.875z" opacity=".3"/><path fill="url(#g)" d="M43.5 42.25V46c1.241.007 3-.84 3-1.875 0-1.035-1.385-1.875-3-1.875z" opacity=".3"/><path fill="url(#h)" d="M45.687 40.056l-19.097-36c-.549-1-1.542-1.556-2.648-1.556s-2.105.666-2.662 1.666l-18.955 36c-.446.89-.451 2.112.098 3 .55.89 1.433 1.334 2.539 1.334h38.052c1.106 0 2.104-.556 2.55-1.444.557-.89.561-2 .123-3z"/><path fill="none" stroke="url(#i)" d="M44.065 39.314L26.12 5.428c-.765-1.46-1.039-1.928-2.2-1.928-1 0-1.522.682-2.244 2.06L3.931 39.418c-1.03 1.901-1.141 2.397-.645 3.234.496.836 1.133.79 3.486.845H41.65c2.19.028 2.684-.14 3.087-.977.503-.837.289-1.5-.673-3.206z" opacity=".6"/><path fill="none" stroke="#ad5f00" d="M45.687 40.056l-19.097-36c-.549-1-1.542-1.556-2.648-1.556s-2.105.666-2.662 1.666l-18.955 36c-.446.89-.451 2.112.098 3 .55.89 1.433 1.334 2.539 1.334h38.052c1.106 0 2.104-.556 2.55-1.444.557-.89.561-2 .123-3z" color="#000" opacity=".5"/><path fill="#fff" d="M24 14a3 3 0 0 0-3 3c0 3 1 7 2 15h2c1-8 2-12 2-15a3 3 0 0 0-3-3zm0 21a3 3 0 1 0 0 6 3 3 0 0 0 0-6z" opacity=".3"/><path fill="#7a0000" d="M24 13a3 3 0 0 0-3 3c0 3 1 7 2 15h2c1-8 2-12 2-15a3 3 0 0 0-3-3zm0 21a3 3 0 1 0 0 6 3 3 0 0 0 0-6z" color="#000"/></svg>