<?xml version="1.0" encoding="UTF-8" standalone="no"?><svg xmlns="http://www.w3.org/2000/svg" xmlns:xlink="http://www.w3.org/1999/xlink" width="24" height="24"><defs><linearGradient id="c"><stop offset="0" stop-color="#fff"/><stop offset="1" stop-color="#fff" stop-opacity="0"/></linearGradient><linearGradient id="b"><stop offset="0"/><stop offset="1" stop-opacity="0"/></linearGradient><linearGradient id="a"><stop offset="0" stop-opacity="0"/><stop offset=".5"/><stop offset="1" stop-opacity="0"/></linearGradient><linearGradient id="l" x1="17.554" x2="17.554" y1="46" y2="35" gradientTransform="matrix(.90999 0 0 .36364 -9.387 7.273)" gradientUnits="userSpaceOnUse" xlink:href="#a"/><radialGradient id="k" cx="5" cy="41.5" r="5" fx="5" fy="41.5" gradientTransform="matrix(.30755 0 0 .4 -3.07 -38.6)" gradientUnits="userSpaceOnUse" xlink:href="#b"/><linearGradient id="d"><stop offset="0" stop-color="#fff"/><stop offset="1" stop-color="#a2a2a2"/></linearGradient><radialGradient id="j" cx="5" cy="41.5" r="5" fx="5" fy="41.5" gradientTransform="matrix(.30755 0 0 .4 20.93 -38.6)" gradientUnits="userSpaceOnUse" xlink:href="#b"/><linearGradient id="s" x1="13.472" x2="57.726" y1="25.411" y2="25.411" gradientTransform="matrix(0 -.3705 -.36175 0 26.484 17.332)" gradientUnits="userSpaceOnUse" xlink:href="#c"/><linearGradient id="r" x1="6.53" x2="62.877" y1="23.812" y2="23.812" gradientTransform="matrix(0 .31945 -.31335 0 24.461 .914)" gradientUnits="userSpaceOnUse" xlink:href="#d"/><linearGradient id="i"><stop offset="0" stop-color="#997543"/><stop offset=".239" stop-color="#715d43"/><stop offset=".276" stop-color="#7b6241"/><stop offset="1" stop-color="#604c31"/></linearGradient><linearGradient id="g"><stop offset="0" stop-color="#fff"/><stop offset=".009" stop-color="#fff" stop-opacity=".235"/><stop offset="1" stop-color="#fff" stop-opacity=".157"/><stop offset="1" stop-color="#fff" stop-opacity=".392"/></linearGradient><linearGradient id="f"><stop offset="0" stop-color="#fff"/><stop offset=".302" stop-color="#fff"/><stop offset=".344" stop-color="#fff" stop-opacity=".643"/><stop offset="1" stop-color="#fff" stop-opacity=".391"/></linearGradient><linearGradient id="e"><stop offset="0" stop-color="#dac197"/><stop offset=".156" stop-color="#c1a581"/><stop offset=".156" stop-color="#dbc298"/><stop offset="1" stop-color="#a68b60"/></linearGradient><linearGradient id="h"><stop offset="0" stop-color="#fff"/><stop offset=".023" stop-color="#fff" stop-opacity=".235"/><stop offset=".951" stop-color="#fff" stop-opacity=".157"/><stop offset="1" stop-color="#fff" stop-opacity=".392"/></linearGradient><linearGradient id="m" x1="24.554" x2="24.554" y1="22.109" y2="37.838" gradientTransform="matrix(.90695 0 0 1.08079 35.687 -18.895)" gradientUnits="userSpaceOnUse" xlink:href="#e"/><linearGradient id="n" x1="24.537" x2="24.537" y1="21.915" y2="8.347" gradientTransform="matrix(.9899 0 0 .6901 29.24 -2.182)" gradientUnits="userSpaceOnUse" xlink:href="#f"/><linearGradient id="o" x1="24" x2="24" y1="7.042" y2="40.958" gradientTransform="matrix(.72973 0 0 .32432 39.443 7.716)" gradientUnits="userSpaceOnUse" xlink:href="#g"/><linearGradient id="p" x1="24" x2="24" y1="10.134" y2="47.194" gradientTransform="matrix(.72958 0 0 .10793 39.709 4.98)" gradientUnits="userSpaceOnUse" xlink:href="#h"/><linearGradient id="q" x1="53" x2="53" y1="189" y2="208" gradientTransform="translate(.956 -185.001)" gradientUnits="userSpaceOnUse" xlink:href="#i"/></defs><rect width="1.533" height="4" x="22.467" y="-24" fill="url(#j)" opacity=".4" transform="scale(1 -1)"/><rect width="1.533" height="4" x="-1.533" y="-24" fill="url(#k)" opacity=".4" transform="scale(-1)"/><rect width="20.93" height="4" x="1.533" y="20" fill="url(#l)" opacity=".4"/><path fill="url(#m)" d="M45.855 4.617h13.864c1.218 0 1.766-.2 2.116.694l1.623 4.29v12.08c0 1.079.073.914-1.145.914H43.6c-1.218 0-1.145.165-1.145-.914V9.6l1.623-4.29c.34-.875.558-.694 1.776-.694z" display="block" transform="translate(-40.957)"/><path fill="url(#n)" d="M52.307 4.598l1.34.07.33 5.332v2.07c-.39 0-.088-.602-.477-.602-.4 0-.137.62-.536.62-.32 0-.036-.554-.357-.554-.21 0-.42.466-.63.466 0 0-.09-.325 0-2.07z" opacity=".3" transform="translate(-40.957)"/><path fill="none" stroke="url(#o)" stroke-linecap="round" stroke-linejoin="round" d="M62.457 21.5h-19v-12h19z" opacity=".3" transform="translate(-40.957)"/><path fill="none" stroke="url(#p)" stroke-linecap="round" stroke-linejoin="round" d="M43.457 9.5l1.5-4h16l1.172 3.994" opacity=".2" transform="translate(-40.957)"/><path fill="none" stroke="url(#q)" stroke-linecap="round" stroke-width=".994" d="M45.855 4.516h13.864c1.218 0 1.766-.2 2.116.694l1.623 4.29v12.08c0 1.079.073.914-1.145.914H43.6c-1.218 0-1.145.165-1.145-.913V9.5l1.623-4.29c.34-.875.558-.694 1.776-.694z" display="block" opacity=".5" transform="translate(-40.957)"/><path fill="url(#r)" stroke="#7f7f7f" stroke-linecap="round" stroke-linejoin="round" stroke-width=".998" d="M23.151 8.5l-6.191-7-6.16 7h2.675v6h7v-6z"/><path fill="none" stroke="url(#s)" stroke-width=".998" d="M20.902 7.5l-3.927-4.545L12.938 7.5h1.537v6h5v-6z" opacity=".354"/></svg>