<?xml version="1.0" encoding="UTF-8"?><svg xmlns="http://www.w3.org/2000/svg" xmlns:xlink="http://www.w3.org/1999/xlink" width="24" height="24"><defs><linearGradient id="m" x1="24" x2="24" y1="6.549" y2="41.414" gradientTransform="translate(.974 .972) scale(.45946)" gradientUnits="userSpaceOnUse" xlink:href="#a"/><linearGradient id="a"><stop offset="0" stop-color="#fff"/><stop offset="0" stop-color="#fff" stop-opacity=".235"/><stop offset="1" stop-color="#fff" stop-opacity=".157"/><stop offset="1" stop-color="#fff" stop-opacity=".392"/></linearGradient><radialGradient id="i" cx="4.993" cy="43.5" r="2.5" fx="4.993" fy="43.5" gradientTransform="matrix(2.00378 0 0 1.4 27.988 -17.4)" gradientUnits="userSpaceOnUse" xlink:href="#b"/><linearGradient id="b"><stop offset="0" stop-color="#181818"/><stop offset="1" stop-color="#181818" stop-opacity="0"/></linearGradient><radialGradient id="j" cx="4.993" cy="43.5" r="2.5" fx="4.993" fy="43.5" gradientTransform="matrix(2.00378 0 0 1.4 -20.012 -104.4)" gradientUnits="userSpaceOnUse" xlink:href="#c"/><linearGradient id="c"><stop offset="0" stop-color="#181818"/><stop offset="1" stop-color="#181818" stop-opacity="0"/></linearGradient><linearGradient id="k" x1="25.058" x2="25.058" y1="47.028" y2="39.999" gradientUnits="userSpaceOnUse" xlink:href="#d"/><linearGradient id="d"><stop offset="0" stop-color="#181818" stop-opacity="0"/><stop offset=".5" stop-color="#181818"/><stop offset="1" stop-color="#181818" stop-opacity="0"/></linearGradient><linearGradient id="f"><stop offset="0" stop-color="#fff"/><stop offset=".508" stop-color="#fff" stop-opacity=".235"/><stop offset=".835" stop-color="#fff" stop-opacity=".157"/><stop offset="1" stop-color="#fff" stop-opacity=".392"/></linearGradient><linearGradient id="e"><stop offset="0" stop-color="#fafafa"/><stop offset="1" stop-color="#d4d4d4"/></linearGradient><linearGradient id="l" x1="14.33" x2="14.33" y1="32.022" y2="-.07" gradientTransform="translate(.923 -23.077) scale(.6923)" gradientUnits="userSpaceOnUse" xlink:href="#e"/><linearGradient id="p" x1="71.204" x2="71.204" y1="6.238" y2="44.341" gradientTransform="matrix(-.12613 0 0 .12613 24.55 9.296)" gradientUnits="userSpaceOnUse" xlink:href="#f"/><linearGradient id="o" x1="38.977" x2="38.977" y1="59.968" y2="8.093" gradientTransform="matrix(-.122 0 0 .122 19.406 8.346)" gradientUnits="userSpaceOnUse" xlink:href="#g"/><linearGradient id="g"><stop offset="0" stop-color="#e9e9e9"/><stop offset="1" stop-color="#fff"/></linearGradient><linearGradient id="n" x1="30.271" x2="30.271" y1="10.029" y2="55.053" gradientTransform="matrix(.38889 0 0 .4375 -.442 -1.506)" gradientUnits="userSpaceOnUse" xlink:href="#h"/><linearGradient id="h"><stop offset="0" stop-color="#64baff"/><stop offset="1" stop-color="#3689e6"/></linearGradient></defs><g opacity=".4" transform="matrix(.57895 0 0 .42857 -1.895 2.857)"><rect width="5" height="7" x="38" y="40" fill="url(#i)"/><rect width="5" height="7" x="-10" y="-47" fill="url(#j)" transform="scale(-1)"/><rect width="28" height="7" x="10" y="40" fill="url(#k)"/></g><rect width="18" height="18" x="3" y="-21" fill="url(#l)" color="#000" rx=".5" ry=".5" transform="scale(1 -1)"/><rect width="19" height="19" x="2.5" y="2.5" fill="none" stroke="#555761" stroke-linecap="round" stroke-linejoin="round" color="#000" opacity=".5" rx="1" ry="1"/><rect width="17" height="17" x="3.501" y="3.499" fill="none" stroke="url(#m)" stroke-linecap="round" stroke-linejoin="round"/><path fill="#fff" fill-rule="evenodd" d="M4.936 4.975a.444.444 0 0 1-.89 0 .444.444 0 1 1 .89 0z" color="#000"/><path fill-rule="evenodd" d="M4.936 4.53a.444.444 0 0 1-.89 0 .444.444 0 1 1 .89 0z" color="#000" opacity=".3"/><path fill="#fff" fill-rule="evenodd" d="M19.916 4.975a.444.444 0 0 1-.889 0 .444.444 0 1 1 .89 0z" color="#000"/><path fill-rule="evenodd" d="M19.916 4.53a.444.444 0 0 1-.889 0 .444.444 0 1 1 .89 0z" color="#000" opacity=".3"/><path fill="#fff" fill-rule="evenodd" d="M4.936 19.992a.444.444 0 0 1-.89 0 .444.444 0 1 1 .89 0z" color="#000"/><path fill-rule="evenodd" d="M4.936 19.548a.444.444 0 0 1-.89 0 .444.444 0 1 1 .89 0z" color="#000" opacity=".3"/><path fill="#fff" fill-rule="evenodd" d="M19.916 19.992a.444.444 0 0 1-.889 0 .444.444 0 1 1 .89 0z" color="#000"/><path fill-rule="evenodd" d="M19.916 19.548a.444.444 0 0 1-.889 0 .444.444 0 1 1 .89 0z" color="#000" opacity=".3"/><path fill="#fff" d="M8.545 8.994a3.45 3.45 0 0 0-3.457 3.457 3.45 3.45 0 0 0 3.457 3.456h6.914a3.45 3.45 0 0 0 3.457-3.456 3.45 3.45 0 0 0-3.457-3.457z" color="#000" opacity=".2"/><path fill="url(#n)" d="M8.502 8.994a3.492 3.492 0 0 0-3.5 3.5c0 1.939 1.561 3.5 3.5 3.5h7c1.939 0 3.5-1.561 3.5-3.5 0-1.94-1.561-3.5-3.5-3.5z" color="#000"/><path fill="#002e99" d="M8.502 8.993a3.492 3.492 0 0 0-3.5 3.5c0 .171.025.335.049.5a3.482 3.482 0 0 1 3.451-3h7a3.482 3.482 0 0 1 3.451 3c.024-.165.049-.329.049-.5 0-1.939-1.561-3.5-3.5-3.5h-7z" color="#000" opacity=".3"/><path d="M15.502 9.97c1.931 0 3.5 1.569 3.5 3.5s-1.569 3.5-3.5 3.5a3.502 3.502 0 0 1-3.5-3.5c0-1.931 1.569-3.5 3.5-3.5z" color="#000" opacity=".15"/><path fill="url(#o)" d="M15.502 9.383a3.113 3.113 0 0 1 3.111 3.11 3.113 3.113 0 0 1-3.111 3.112 3.113 3.113 0 0 1-3.111-3.111 3.113 3.113 0 0 1 3.111-3.111z" color="#000"/><path fill="none" stroke="url(#p)" stroke-linecap="round" stroke-linejoin="round" stroke-width=".778" d="M13.169 12.494a2.333 2.333 0 1 0 4.667 0 2.333 2.333 0 0 0-4.667 0z" color="#000"/><path fill="none" stroke="#000" stroke-linecap="round" stroke-linejoin="round" stroke-width=".778" d="M15.502 9.383a3.113 3.113 0 0 1 3.111 3.11 3.113 3.113 0 0 1-3.111 3.112 3.113 3.113 0 0 1-3.111-3.111 3.113 3.113 0 0 1 3.111-3.111z" color="#000" opacity=".3"/></svg>
