<?xml version="1.0" encoding="UTF-8"?><svg xmlns="http://www.w3.org/2000/svg" xmlns:xlink="http://www.w3.org/1999/xlink" version="1.1" width="24" height="24" viewBox="0 0 24 24" preserveAspectRatio="none"><defs><linearGradient id="g"><stop offset="0" stop-color="#d4d4d4"/><stop offset="1" stop-color="#d4d4d4" stop-opacity="0"/></linearGradient><linearGradient id="f"><stop offset="0" stop-color="#555761"/><stop offset="1" stop-color="#555761" stop-opacity="0"/></linearGradient><linearGradient id="e"><stop offset="0" stop-color="#fff"/><stop offset="1" stop-color="#fff" stop-opacity="0"/></linearGradient><linearGradient id="a"><stop offset="0" stop-color="#fff"/><stop offset="0" stop-color="#fff" stop-opacity=".235"/><stop offset="1" stop-color="#fff" stop-opacity=".157"/><stop offset="1" stop-color="#fff" stop-opacity=".392"/></linearGradient><linearGradient id="b"><stop offset="0" stop-color="#f4f4f4"/><stop offset="1" stop-color="#dbdbdb"/></linearGradient><linearGradient id="c"><stop offset="0"/><stop offset="1" stop-opacity="0"/></linearGradient><linearGradient id="d"><stop offset="0" stop-opacity="0"/><stop offset=".5"/><stop offset="1" stop-opacity="0"/></linearGradient><linearGradient id="l" x1="24" x2="24" y1="6.474" y2="41.526" gradientTransform="matrix(.4054 0 0 .51351 2.27 -.324)" gradientUnits="userSpaceOnUse" xlink:href="#a"/><linearGradient id="k" x1="25.132" x2="25.132" y1=".985" y2="47.013" gradientTransform="matrix(.45714 0 0 .43457 1.029 .904)" gradientUnits="userSpaceOnUse" xlink:href="#b"/><radialGradient id="j" cx="605.714" cy="486.648" r="117.143" fx="605.714" fy="486.648" gradientTransform="matrix(.01205 0 0 .00824 13.239 18.98)" gradientUnits="userSpaceOnUse" xlink:href="#c"/><radialGradient id="i" cx="605.714" cy="486.648" r="117.143" fx="605.714" fy="486.648" gradientTransform="matrix(-.01205 0 0 .00824 10.761 18.98)" gradientUnits="userSpaceOnUse" xlink:href="#c"/><linearGradient id="h" x1="302.857" x2="302.857" y1="366.648" y2="609.505" gradientTransform="matrix(.0352 0 0 .00824 -.725 18.98)" gradientUnits="userSpaceOnUse" xlink:href="#d"/><linearGradient id="o" x1="299.232" x2="308.65" y1="58.039" y2="60.768" gradientTransform="matrix(.69667 0 0 .6929 -198.74 -25.39)" gradientUnits="userSpaceOnUse"><stop offset="0" stop-color="#abacae"/><stop offset="1" stop-color="#fafafa"/></linearGradient><linearGradient id="p" x1="18.171" x2="23.967" y1="15.649" y2="21.367" gradientUnits="userSpaceOnUse" xlink:href="#e"/><linearGradient id="n" x1="17.691" x2="19.636" y1="20.709" y2="24.018" gradientUnits="userSpaceOnUse" xlink:href="#f"/><linearGradient id="m" x1="18.565" x2="20.5" y1="20.563" y2="24" gradientUnits="userSpaceOnUse" xlink:href="#g"/></defs><path fill="url(#h)" d="M3.5 22h17v2h-17z" opacity=".15"/><path fill="url(#i)" d="M3.5 22v2c-.62.004-1.5-.448-1.5-1s.692-1 1.5-1z" opacity=".15"/><path fill="url(#j)" d="M20.5 22v2c.62.004 1.5-.448 1.5-1s-.692-1-1.5-1z" opacity=".15"/><path fill="url(#k)" d="M4 2l16 .001V22H4V2z"/><path fill="none" stroke="url(#l)" stroke-linecap="round" d="M19.5 21.5h-15v-19h15z"/><path fill="none" stroke="#000" stroke-linejoin="round" d="M3.5 1.5l17 .001V22.5h-17v-21z" opacity=".3"/><path fill="url(#m)" fill-rule="evenodd" stroke="url(#n)" stroke-dashoffset=".361" stroke-linecap="round" stroke-linejoin="round" stroke-opacity=".5" d="M14.084 10.045a.835.835 0 0 0-.629.29.805.805 0 0 0-.105.91v.003l1.398 2.66c-.011-.021.02.086-.156.336-.179.253-.51.555-.94.803-.431.249-.85.382-1.136.404a.805.805 0 0 1-.295-.021c-.045-.016-.024-.01-.018.002l-1.412-2.686a.534.534 0 0 0 0-.002.803.803 0 0 0-.63-.41.534.534 0 0 0-.003 0 .813.813 0 0 0-.666.268.827.827 0 0 0-.191.34.534.534 0 0 0-.002.003c-.384 1.406-.328 2.961.28 4.116.792 1.506 2.514 2.153 4.214 1.86.53.167 1.25.54 2.13 1.417L19.614 24H24v-2.045l-4.861-4.826c-.784-.78-1.161-1.427-1.356-1.934.204-.892.164-1.83-.273-2.662-.607-1.153-1.841-2.033-3.188-2.449a.809.809 0 0 0-.238-.04z"/><path fill="url(#o)" fill-rule="evenodd" d="M13.876 10.665c.013.01.005.022 0 .022l1.568 2.793c.211.377.059.821-.196 1.191-.258.374-.656.736-1.176 1.018a3.527 3.527 0 0 1-1.524.433c-.456.016-.885-.114-1.088-.476L9.892 12.83H9.87c.015-.016.003.011 0 .022-.289 1.239-.139 2.67.392 3.616.727 1.292 2.243 1.91 3.745 1.645 1.494-.266 2.772-1.56 3.091-2.793a3.257 3.257 0 0 0-.305-2.403c-.53-.943-1.694-1.83-2.917-2.252z"/><path fill="none" stroke="url(#p)" stroke-dashoffset=".361" stroke-linecap="round" stroke-linejoin="round" d="M14.566 11.309l1.086 2.123c.251.477.073.974-.218 1.386-.294.417-.742.808-1.276 1.116-.527.304-1.063.504-1.574.545a1.698 1.698 0 0 1-.705-.083 1.05 1.05 0 0 1-.57-.49l-1.086-2.066c-.15 1.013-.087 2.066.271 2.746.594 1.128 1.891 1.641 3.285 1.334.08-.02.165-.02.244 0 .715.212 1.629.686 2.633 1.685L21.078 24H24v-.592l-5.58-5.543c-.905-.9-1.385-1.719-1.629-2.394a.49.49 0 0 1 0-.3c.216-.741.155-1.521-.19-2.175-.356-.677-1.148-1.284-2.035-1.687z"/></svg>
