<?xml version="1.0" encoding="UTF-8"?><svg xmlns="http://www.w3.org/2000/svg" xmlns:xlink="http://www.w3.org/1999/xlink" version="1.1" width="24" height="24" viewBox="0 0 24 24" preserveAspectRatio="none"><defs><linearGradient id="c"><stop offset="0"/><stop offset="1" stop-opacity="0"/></linearGradient><linearGradient id="a"><stop offset="0" stop-color="#fff"/><stop offset=".003" stop-color="#fff" stop-opacity=".235"/><stop offset=".99" stop-color="#fff" stop-opacity=".157"/><stop offset="1" stop-color="#fff" stop-opacity=".392"/></linearGradient><linearGradient id="d"><stop offset="0" stop-opacity="0"/><stop offset=".5"/><stop offset="1" stop-opacity="0"/></linearGradient><linearGradient id="b"><stop offset="0" stop-color="#f9f9f9"/><stop offset="1" stop-color="#d8d8d8"/></linearGradient><linearGradient id="m" x1="27.129" x2="27.129" y1="8.795" y2="22.597" gradientTransform="matrix(.62763 0 0 .72456 2.973 4.627)" gradientUnits="userSpaceOnUse" xlink:href="#a"/><linearGradient id="j" x1="62.543" x2="62.543" y1="13.704" y2="17.787" gradientTransform="matrix(.49096 0 0 .48985 -24.706 .287)" gradientUnits="userSpaceOnUse" xlink:href="#b"/><radialGradient id="h" cx="605.714" cy="486.648" r="117.143" fx="605.714" fy="486.648" gradientTransform="matrix(.0328 0 0 .01513 .154 13.78)" gradientUnits="userSpaceOnUse" xlink:href="#c"/><radialGradient id="i" cx="605.714" cy="486.648" r="117.143" fx="605.714" fy="486.648" gradientTransform="matrix(-.0328 0 0 .01513 23.846 13.78)" gradientUnits="userSpaceOnUse" xlink:href="#c"/><linearGradient id="g" x1="302.857" x2="302.857" y1="366.648" y2="609.505" gradientTransform="matrix(.0328 0 0 .01513 .147 13.78)" gradientUnits="userSpaceOnUse" xlink:href="#d"/><linearGradient id="e"><stop offset="0" stop-color="#efdfc4"/><stop offset="1" stop-color="#e7c591"/></linearGradient><linearGradient id="l" x1="51.622" x2="51.622" y1="84.425" y2="110.263" gradientTransform="matrix(.50413 0 0 .49333 -16.682 -32.483)" gradientUnits="userSpaceOnUse" xlink:href="#e"/><linearGradient id="k" x1="69.753" x2="69.772" y1="9.721" y2="20.09" gradientTransform="matrix(1.32103 0 0 1.26798 -76.73 -5.326)" gradientUnits="userSpaceOnUse" xlink:href="#f"/><linearGradient id="f"><stop offset="0" stop-color="#fff"/><stop offset="0" stop-color="#fff" stop-opacity=".235"/><stop offset="1" stop-color="#fff" stop-opacity=".157"/><stop offset="1" stop-color="#fff" stop-opacity=".392"/></linearGradient></defs><path fill="url(#g)" d="M4.083 19.327h15.835V23H4.083z" opacity=".3"/><path fill="url(#h)" d="M19.917 19.327V23c1.69.007 4.083-.823 4.083-1.837s-1.885-1.836-4.083-1.836z" opacity=".3"/><path fill="url(#i)" d="M4.083 19.327V23C2.393 23.007 0 22.177 0 21.163s1.885-1.836 4.083-1.836z" opacity=".3"/><path fill="none" stroke="#7e8087" stroke-linecap="square" stroke-width=".992" d="M3.036 3.504c-.277 0-.5.223-.5.5V5.5h-.5c-.277 0-.5.223-.5.5v2.507h21V6c0-.277-.223-.5-.5-.5h-11.5V4.004c0-.277-.223-.5-.5-.5z" color="#000" opacity=".5"/><path fill="url(#j)" d="M3.036 4v2h-1v4h20V6h-12V4z" color="#000"/><path fill="none" stroke="url(#k)" stroke-linecap="round" stroke-linejoin="round" d="M3.536 4.5v2h-1v3.34h19V6.5h-12v-2z" color="#000"/><path fill="url(#l)" stroke="#987124" stroke-opacity=".498" d="M1.5 9.5V18l.25 3.5h20.5l.25-3.5V9.5z" color="#000"/><path fill="none" stroke="url(#m)" stroke-linecap="round" d="M2.5 10.5l-.054 7.505.304 2.495h18.5l.259-2.444-.01-7.556z" color="#000" opacity=".5"/></svg>
