<?xml version="1.0" encoding="UTF-8"?><svg xmlns="http://www.w3.org/2000/svg" xmlns:xlink="http://www.w3.org/1999/xlink" width="24" height="24"><defs><linearGradient id="a"><stop offset="0" stop-color="#0d0d0d"/><stop offset="1" stop-color="#0d0d0d" stop-opacity="0"/></linearGradient><radialGradient id="d" cx="11.25" cy="19.031" r="8.063" fx="11.25" fy="19.031" gradientTransform="matrix(1.4062 0 0 .3721 -3.82 7.919)" gradientUnits="userSpaceOnUse" xlink:href="#a"/><radialGradient id="e" cx="65.598" cy="48.745" r="31" fx="65.598" fy="48.745" gradientTransform="matrix(0 .95936 -1.04367 0 62.758 -60.856)" gradientUnits="userSpaceOnUse" xlink:href="#b"/><linearGradient id="c"><stop offset="0" stop-color="#fff"/><stop offset="0" stop-color="#fff" stop-opacity=".235"/><stop offset="1" stop-color="#fff" stop-opacity=".157"/><stop offset="1" stop-color="#fff" stop-opacity=".392"/></linearGradient><linearGradient id="f" x1="24.139" x2="24.139" y1="20.271" y2="26.006" gradientTransform="matrix(.60015 0 0 .69748 -1.444 -4.129)" gradientUnits="userSpaceOnUse" xlink:href="#c"/><linearGradient id="b"><stop offset="0" stop-color="#f8b17e"/><stop offset=".262" stop-color="#e35d4f"/><stop offset=".661" stop-color="#c6262e"/><stop offset="1" stop-color="#690b54"/></linearGradient></defs><path fill="url(#d)" d="M23.337 15c0 1.657-5.075 3-11.337 3S.663 16.657.663 15 5.738 12 12 12s11.337 1.343 11.337 3z" opacity=".3"/><path fill="url(#e)" d="M21.507 8.51v7H2.493v-7z" color="#000" transform="translate(.007 -.01)"/><path fill="none" stroke="url(#f)" d="M3.5 14.492v-4.98c5.667.02 11.333.019 17 0v4.98c-5.667.02-11.334.019-17 0z" opacity=".5" transform="translate(.007 -.01)"/><path fill="none" stroke="#6f0000" stroke-linecap="round" stroke-linejoin="round" d="M21.515 8.5v7H2.5v-7z" color="#000" opacity=".5"/></svg>
