<?xml version="1.0" encoding="UTF-8"?><svg xmlns="http://www.w3.org/2000/svg" xmlns:xlink="http://www.w3.org/1999/xlink" version="1.1" width="24" height="24" viewBox="0 0 24 24" preserveAspectRatio="none"><defs><linearGradient id="a"><stop offset="0" stop-color="#0d0d0d"/><stop offset="1" stop-color="#0d0d0d" stop-opacity="0"/></linearGradient><radialGradient id="d" cx="11.25" cy="19.031" r="8.063" fx="11.25" fy="19.031" gradientTransform="matrix(1.4062 0 0 .3867 -3.82 13.523)" gradientUnits="userSpaceOnUse" xlink:href="#a"/><radialGradient id="e" cx="65.598" cy="48.745" r="31" fx="65.598" fy="48.745" gradientTransform="matrix(0 .95936 -1.04367 0 112.745 -49.552)" gradientUnits="userSpaceOnUse" xlink:href="#b"/><linearGradient id="b"><stop offset="0" stop-color="#cdf87e"/><stop offset=".262" stop-color="#a2e34f"/><stop offset=".661" stop-color="#68b723"/><stop offset="1" stop-color="#1d7e0d"/></linearGradient><linearGradient id="f" x1="24.139" x2="24.139" y1="9.712" y2="36.594" gradientTransform="matrix(.70449 0 0 .5952 46.23 9.533)" gradientUnits="userSpaceOnUse" xlink:href="#c"/><linearGradient id="c"><stop offset="0" stop-color="#fff"/><stop offset="0" stop-color="#fff" stop-opacity=".235"/><stop offset="1" stop-color="#fff" stop-opacity=".157"/><stop offset="1" stop-color="#fff" stop-opacity=".392"/></linearGradient><linearGradient id="g" x1="24.139" x2="24.139" y1="20.271" y2="26.006" gradientTransform="matrix(.60015 0 0 .69748 48.544 7.175)" gradientUnits="userSpaceOnUse" xlink:href="#c"/></defs><path fill="url(#d)" d="M23.337 20.882C23.337 22.604 18.262 24 12 24S.663 22.604.663 20.882 5.738 17.764 12 17.764s11.337 1.396 11.337 3.118z" opacity=".3"/><path fill="url(#e)" d="M58.488 19.814v-6.027h7v6.027h6.007v7h-6.007v6.008h-7v-6.008H52.48v-7z" color="#000" transform="translate(-49.988 -11.304)"/><path fill="none" stroke="url(#f)" d="M59.488 21.773v-6.959h5v6.95m0 3.096v6.954h-5V24.86" opacity=".5" transform="translate(-49.988 -11.304)"/><path fill="none" stroke="url(#g)" d="M64.988 20.834l5.5-.018v4.98l-5.5.018m-6 0l-5.5-.018v-4.98l5.5.018" opacity=".5" transform="translate(-49.988 -11.304)"/><path fill="none" stroke="#0f5a00" stroke-linecap="round" stroke-linejoin="round" d="M8.5 8.51V2.483h7V8.51h6.007v7H15.5v6.007h-7V15.51H2.493v-7z" color="#000" opacity=".5"/></svg>
