<?xml version="1.0" encoding="UTF-8"?><svg xmlns="http://www.w3.org/2000/svg" xmlns:xlink="http://www.w3.org/1999/xlink" version="1.1" width="24" height="24" viewBox="0 0 24 24" preserveAspectRatio="none"><defs><linearGradient id="a"><stop offset="0" stop-color="#fff"/><stop offset=".508" stop-color="#fff" stop-opacity=".235"/><stop offset=".835" stop-color="#fff" stop-opacity=".157"/><stop offset="1" stop-color="#fff" stop-opacity=".392"/></linearGradient><linearGradient id="f" x1="71.204" x2="71.204" y1="6.238" y2="44.341" gradientTransform="translate(-24.836 -1.021) scale(.51351)" gradientUnits="userSpaceOnUse" xlink:href="#a"/><linearGradient id="e" x1="2035.165" x2="2035.165" y1="3208.074" y2="3241.997" gradientTransform="matrix(.80479 0 0 .60166 -1628.82 -1928.08)" gradientUnits="userSpaceOnUse" xlink:href="#b"/><radialGradient id="d" cx="99.157" cy="186.171" r="62.769" fx="99.157" fy="186.171" gradientTransform="matrix(.11152 0 0 .03548 .942 15.167)" gradientUnits="userSpaceOnUse" xlink:href="#c"/><linearGradient id="c"><stop offset="0" stop-color="#3d3d3d"/><stop offset=".5" stop-color="#686868" stop-opacity=".498"/><stop offset="1" stop-color="#686868" stop-opacity="0"/></linearGradient><linearGradient id="b"><stop offset="0" stop-color="#64baff"/><stop offset="1" stop-color="#3689e6"/></linearGradient></defs><path fill="url(#d)" d="M19 21.773a7 2.227 0 0 1-14 0 7 2.227 0 1 1 14 0z"/><path fill="url(#e)" d="M12 1.5C6.206 1.5 1.5 6.206 1.5 12S6.206 22.5 12 22.5 22.5 17.794 22.5 12 17.794 1.5 12 1.5z" color="#000" opacity=".99"/><path fill="none" stroke="#002e99" stroke-linecap="round" stroke-linejoin="round" d="M12 1.5C6.206 1.5 1.5 6.206 1.5 12S6.206 22.5 12 22.5 22.5 17.794 22.5 12 17.794 1.5 12 1.5z" color="#000" opacity=".5"/><path fill="none" stroke="url(#f)" stroke-linecap="round" stroke-linejoin="round" d="M21.5 12a9.5 9.5 0 1 1-19 0 9.5 9.5 0 0 1 19 0z" color="#000" opacity=".5"/><path d="M13.594 5.031c-.026-.001-.037.032-.063.031H13.5c-1.102-.002-1.923.788-2.188 1.657a2.387 2.387 0 0 0 0 1.437 2.15 2.15 0 0 0 1.094 1.25.983.983 0 0 0 .031 0c.223.091.437.045.657.063 1.463.12 2.762-1.175 2.469-2.688-.007-.032.007-.061 0-.094h-.032a1.99 1.99 0 0 0-1.937-1.625v-.03zm-.5 4.438c-.338-.028-.774.125-1.156.343l-.032-.062c-.075.033-.114.09-.187.125-1.292.609-2.343 1.479-3.313 2.188a.983.983 0 0 0-.344 1.124c.076.207.08.497.594.876.257.189.77.253 1.094.124.065-.025.073-.064.125-.093-.324 1.314-.645 2.64-.938 4-.014.065-.048.122-.062.187h.031c-.247.807-.052 1.689.531 2.219.584.53 1.541.577 2.313.156v.032c.047-.02.079-.043.125-.063.023-.01.04-.021.063-.031 1.113-.498 2.033-1.192 2.874-1.782a.983.983 0 0 0 .344-1.187c-.032-.079-.004-.28-.344-.688-.17-.203-.662-.484-1.093-.406-.173.032-.203.122-.313.188.354-1.406.746-2.813 1.094-4.313.015-.066.048-.12.063-.187H14.5c.19-.533.251-1.094.063-1.594-.211-.559-.742-1.097-1.47-1.156z" style="-inkscape-font-specification:'URW Palladio L Bold'" fill="#002e99" color="#000" opacity=".05"/><path style="-inkscape-font-specification:'URW Palladio L Bold'" fill="#002e99" d="M9 12.851c.134.364.285.66.605.256.398-.237 1.731-1.275 1.598-.258-.427 1.88-.946 3.742-1.344 5.628-.415 1.033.528 1.968 1.513 1.296 1.047-.432 1.948-1.135 2.868-1.78-.125-.307-.209-.75-.556-.347-.456.207-1.45 1.182-1.635.378.382-2.037 1.091-3.998 1.545-6.019.417-.929-.265-2.102-1.284-1.334-1.222.532-2.243 1.401-3.31 2.18zm4.534-6.85c-1.247-.066-1.898 1.944-.714 2.493.961.395 2.007-.591 1.773-1.576-.073-.513-.534-.934-1.06-.916z" color="#000" opacity=".15"/><path style="-inkscape-font-specification:'URW Palladio L Bold'" fill="#fff" d="M9 11.851c.134.364.285.66.605.256.398-.237 1.731-1.275 1.598-.258-.427 1.88-.946 3.742-1.344 5.628-.415 1.033.528 1.968 1.513 1.296 1.047-.432 1.948-1.135 2.868-1.78-.125-.307-.209-.75-.556-.347-.456.207-1.45 1.182-1.635.378.382-2.037 1.091-3.998 1.545-6.019.417-.929-.265-2.102-1.284-1.334-1.222.532-2.243 1.401-3.31 2.18zm4.534-6.85c-1.247-.066-1.898 1.944-.714 2.493.961.395 2.007-.591 1.773-1.576-.073-.513-.534-.934-1.06-.916z"/></svg>
