<?xml version="1.0" encoding="UTF-8"?><svg xmlns="http://www.w3.org/2000/svg" xmlns:xlink="http://www.w3.org/1999/xlink" version="1.1" width="24" height="24" viewBox="0 0 24 24" preserveAspectRatio="none"><defs><linearGradient id="a"><stop offset="0" stop-color="#fff"/><stop offset="0" stop-color="#fff" stop-opacity=".235"/><stop offset="1" stop-color="#fff" stop-opacity=".157"/><stop offset="1" stop-color="#fff" stop-opacity=".392"/></linearGradient><linearGradient id="b"><stop offset="0" stop-color="#f4f4f4"/><stop offset="1" stop-color="#dbdbdb"/></linearGradient><linearGradient id="c"><stop offset="0"/><stop offset="1" stop-opacity="0"/></linearGradient><linearGradient id="d"><stop offset="0" stop-opacity="0"/><stop offset=".5"/><stop offset="1" stop-opacity="0"/></linearGradient><linearGradient id="l" x1="24" x2="24" y1="6.474" y2="41.526" gradientTransform="matrix(.4054 0 0 .51351 2.27 -.324)" gradientUnits="userSpaceOnUse" xlink:href="#a"/><linearGradient id="k" x1="25.132" x2="25.132" y1=".985" y2="47.013" gradientTransform="matrix(.48572 0 0 .4563 .343 .349)" gradientUnits="userSpaceOnUse" xlink:href="#b"/><radialGradient id="j" cx="605.714" cy="486.648" r="117.143" fx="605.714" fy="486.648" gradientTransform="matrix(.01205 0 0 .00824 13.239 18.98)" gradientUnits="userSpaceOnUse" xlink:href="#c"/><radialGradient id="i" cx="605.714" cy="486.648" r="117.143" fx="605.714" fy="486.648" gradientTransform="matrix(-.01205 0 0 .00824 10.761 18.98)" gradientUnits="userSpaceOnUse" xlink:href="#c"/><linearGradient id="h" x1="302.857" x2="302.857" y1="366.648" y2="609.505" gradientTransform="matrix(.0352 0 0 .00824 -.725 18.98)" gradientUnits="userSpaceOnUse" xlink:href="#d"/><radialGradient id="m" cx="65.297" cy="48.216" r="31" fx="65.297" fy="48.216" gradientTransform="matrix(0 .52545 -.57163 0 46.193 -21.124)" gradientUnits="userSpaceOnUse" xlink:href="#e"/><linearGradient id="e"><stop offset="0" stop-color="#cdf87e"/><stop offset=".262" stop-color="#a2e34f"/><stop offset=".661" stop-color="#68b723"/><stop offset="1" stop-color="#1d7e0d"/></linearGradient><linearGradient id="n" x1="24.139" x2="24.139" y1="10.631" y2="35.623" gradientTransform="matrix(.2818 0 0 .2801 12.197 12.015)" gradientUnits="userSpaceOnUse" xlink:href="#f"/><linearGradient id="f"><stop offset="0" stop-color="#fff"/><stop offset="0" stop-color="#fff" stop-opacity=".235"/><stop offset="1" stop-color="#fff" stop-opacity=".157"/><stop offset="1" stop-color="#fff" stop-opacity=".392"/></linearGradient><linearGradient id="o" x1="24.139" x2="24.139" y1="21.342" y2="24.912" gradientTransform="matrix(.2818 0 0 .2801 12.179 12.022)" gradientUnits="userSpaceOnUse" xlink:href="#g"/><linearGradient id="g"><stop offset="0" stop-color="#fff"/><stop offset="0" stop-color="#fff" stop-opacity=".235"/><stop offset="1" stop-color="#fff" stop-opacity=".157"/><stop offset="1" stop-color="#fff" stop-opacity=".392"/></linearGradient></defs><path fill="url(#h)" d="M3.5 22h17v2h-17z" opacity=".15"/><path fill="url(#i)" d="M3.5 22v2c-.62.004-1.5-.448-1.5-1s.692-1 1.5-1z" opacity=".15"/><path fill="url(#j)" d="M20.5 22v2c.62.004 1.5-.448 1.5-1s-.692-1-1.5-1z" opacity=".15"/><path fill="url(#k)" d="M3.5 1.5l17 .001V22.5h-17v-21z"/><path fill="none" stroke="url(#l)" stroke-linecap="round" d="M19.5 21.5h-15v-19h15z"/><path fill="none" stroke="#000" stroke-linejoin="round" d="M3.5 1.5l17 .001V22.5h-17v-21z" opacity=".3"/><path fill="url(#m)" d="M16.482 16.507v-3h4v3h3v4h-3v3h-4v-3h-2.99v-4z" color="#000" transform="translate(.018 -.007)"/><path fill="none" stroke="url(#n)" d="M17.5 18.004V14.5h2V18m0 1v3.5h-2V19" opacity=".5" transform="translate(.018 -.007)"/><path fill="none" stroke="#0f5a00" stroke-linecap="round" stroke-linejoin="round" d="M16.5 16.5v-3h4v3h3v4h-3v3h-4v-3h-2.99v-4z" color="#000" opacity=".5"/><path fill="none" stroke="url(#o)" d="M20 17.507l2.482-.007v2L20 19.507m-3 0l-2.5-.007v-2l2.5.007" opacity=".5" transform="translate(.018 -.007)"/></svg>
