<?xml version="1.0" encoding="UTF-8"?><svg xmlns="http://www.w3.org/2000/svg" xmlns:xlink="http://www.w3.org/1999/xlink" width="24" height="24"><defs><linearGradient id="a"><stop offset="0" stop-color="#fff"/><stop offset=".508" stop-color="#fff" stop-opacity=".235"/><stop offset=".835" stop-color="#fff" stop-opacity=".157"/><stop offset="1" stop-color="#fff" stop-opacity=".392"/></linearGradient><linearGradient id="f" x1="71.204" x2="71.204" y1="6.238" y2="44.341" gradientTransform="translate(-24.836 -1.021) scale(.51351)" gradientUnits="userSpaceOnUse" xlink:href="#a"/><linearGradient id="e" x1="2035.165" x2="2035.165" y1="3208.074" y2="3241.997" gradientTransform="matrix(.80479 0 0 .60166 -1628.82 -1928.08)" gradientUnits="userSpaceOnUse" xlink:href="#b"/><radialGradient id="d" cx="99.157" cy="186.171" r="62.769" fx="99.157" fy="186.171" gradientTransform="matrix(.11152 0 0 .03548 .942 15.167)" gradientUnits="userSpaceOnUse" xlink:href="#c"/><linearGradient id="c"><stop offset="0" stop-color="#3d3d3d"/><stop offset=".5" stop-color="#686868" stop-opacity=".498"/><stop offset="1" stop-color="#686868" stop-opacity="0"/></linearGradient><linearGradient id="b"><stop offset="0" stop-color="#919caf"/><stop offset=".262" stop-color="#68758e"/><stop offset=".705" stop-color="#485a6c"/><stop offset="1" stop-color="#444c5c"/></linearGradient></defs><path fill="url(#d)" d="M19 21.773a7 2.227 0 0 1-14 0 7 2.227 0 1 1 14 0z"/><path fill="url(#e)" d="M12 1.5C6.206 1.5 1.5 6.206 1.5 12S6.206 22.5 12 22.5 22.5 17.794 22.5 12 17.794 1.5 12 1.5z" color="#000" opacity=".99"/><path fill="none" stroke="#1c2c38" stroke-linecap="round" stroke-linejoin="round" d="M12 1.5C6.206 1.5 1.5 6.206 1.5 12S6.206 22.5 12 22.5 22.5 17.794 22.5 12 17.794 1.5 12 1.5z" color="#000" opacity=".5"/><path fill="none" stroke="url(#f)" stroke-linecap="round" stroke-linejoin="round" d="M21.5 12a9.5 9.5 0 1 1-19 0 9.5 9.5 0 0 1 19 0z" color="#000" opacity=".5"/><path fill="#1c2c38" d="M12 4.2c-.95 0-1.737.79-1.737 1.738v1.408c-.323-.444-.77-.78-1.355-.78-.35 0-.599.12-.753.193a.768.768 0 0 0-.07.036l-.302.184a.768.768 0 0 0-.027.016c-1.544 1.019-2.61 2.6-3.038 4.425a3.413 3.413 0 0 1-.035.034l-.138.316a.768.768 0 0 0-.003.013c-.05.295-.03.355-.002.17l.001-.004c-.045.297-.1.635-.1 1.024 0 4.047 3.408 7.315 7.559 7.315 4.15 0 7.559-3.268 7.559-7.315 0-.324-.028-.63-.066-.92a.768.768 0 0 0-.002-.002c-.03-.226-.071-.314-.064-.274-.351-1.992-1.53-3.692-3.183-4.782a.768.768 0 0 0-.027-.017l-.303-.183a.768.768 0 0 0-.069-.036c-.154-.073-.403-.194-.753-.194-.584 0-1.032.337-1.355.781V5.938C13.737 4.99 12.95 4.2 12 4.2zm-1.737 5.197v2.363A1.75 1.75 0 0 0 12 13.497a1.75 1.75 0 0 0 1.737-1.737V9.397c.088.11.159.236.265.322.114.092.248.185.428.261l-.126-.069c.79.525 1.37 1.31 1.628 2.21.079.279.096.308.026.052.083.306.126.614.126.95 0 2.154-1.803 3.903-4.084 3.903-2.28 0-4.084-1.75-4.084-3.902 0-.337.043-.645.126-.951a.768.768 0 0 0 0-.002c-.068.25-.055.237.026-.05.257-.9.838-1.685 1.628-2.21l-.126.069c.18-.076.314-.17.428-.26.106-.087.177-.214.265-.323z" color="#000" opacity=".15"/><path fill="#1c2c38" d="M8.907 7.333c-.152 0-.295.06-.424.12l-.303.183c-1.488.981-2.537 2.498-2.85 4.275 0 .002-.03-.002-.03 0-.009.049.007.102 0 .151-.046.3-.092.597-.092.91 0 3.617 3.041 6.549 6.792 6.549 3.75 0 6.792-2.932 6.792-6.549 0-.278-.026-.55-.061-.819-.011-.083-.046-.16-.06-.242-.314-1.777-1.363-3.294-2.85-4.275l-.304-.182a1.008 1.008 0 0 0-.424-.121 1 1 0 0 0-1 1c0 .314.166.605.393.788.072.059.156.115.243.152a4.74 4.74 0 0 1 1.94 2.638c.006.02.025.04.03.06.101.37.152.75.152 1.153 0 2.583-2.172 4.669-4.851 4.669-2.68 0-4.851-2.086-4.851-4.67 0-.401.05-.781.151-1.152.006-.021.025-.039.03-.06a4.74 4.74 0 0 1 1.941-2.638c.087-.037.17-.093.243-.152.227-.183.394-.474.394-.788a1 1 0 0 0-1-1zM12 4.968c.538 0 .97.432.97.97v5.821c0 .538-.432.97-.97.97a.968.968 0 0 1-.97-.97V5.938c0-.538.432-.97.97-.97z" color="#000" opacity=".3"/><path fill="#fff" d="M8.907 6.582a.996.996 0 0 0-.424.122l-.303.182c-1.488.981-2.537 2.498-2.85 4.275 0 .002-.03-.002-.03 0-.009.049.007.102 0 .151-.046.3-.092.596-.092.91 0 3.617 3.041 6.549 6.792 6.549 3.75 0 6.792-2.932 6.792-6.55 0-.277-.026-.549-.061-.818-.011-.084-.046-.16-.06-.242-.314-1.777-1.363-3.294-2.85-4.275l-.304-.182a1.008 1.008 0 0 0-.424-.122 1 1 0 0 0-1 1c0 .315.166.606.393.79.072.058.156.114.243.15a4.74 4.74 0 0 1 1.94 2.639c.006.02.025.04.03.06.101.37.152.75.152 1.152 0 2.584-2.172 4.67-4.851 4.67-2.68 0-4.851-2.086-4.851-4.67 0-.402.05-.781.151-1.152.006-.021.025-.039.03-.06a4.74 4.74 0 0 1 1.941-2.638c.087-.037.17-.093.243-.152.227-.183.394-.474.394-.788a1 1 0 0 0-1-1zM12 4.217c.538 0 .97.433.97.97v5.822c0 .538-.432.97-.97.97a.968.968 0 0 1-.97-.97V5.188c0-.538.432-.97.97-.97z" color="#000"/></svg>
