<?xml version="1.0" encoding="UTF-8"?><svg xmlns="http://www.w3.org/2000/svg" xmlns:xlink="http://www.w3.org/1999/xlink" version="1.1" width="24" height="24" viewBox="0 0 24 24" preserveAspectRatio="none"><defs><linearGradient id="a"><stop offset="0" stop-color="#fff"/><stop offset="0" stop-color="#fff" stop-opacity=".235"/><stop offset="1" stop-color="#fff" stop-opacity=".157"/><stop offset="1" stop-color="#fff" stop-opacity=".392"/></linearGradient><linearGradient id="b"><stop offset="0" stop-color="#f4f4f4"/><stop offset="1" stop-color="#dbdbdb"/></linearGradient><linearGradient id="c"><stop offset="0"/><stop offset="1" stop-opacity="0"/></linearGradient><linearGradient id="d"><stop offset="0" stop-opacity="0"/><stop offset=".5"/><stop offset="1" stop-opacity="0"/></linearGradient><linearGradient id="j" x1="24" x2="24" y1="6.474" y2="41.526" gradientTransform="matrix(.4054 0 0 .51351 2.27 -.324)" gradientUnits="userSpaceOnUse" xlink:href="#a"/><linearGradient id="i" x1="25.132" x2="25.132" y1=".985" y2="47.013" gradientTransform="matrix(.45714 0 0 .43457 1.029 .904)" gradientUnits="userSpaceOnUse" xlink:href="#b"/><radialGradient id="h" cx="605.714" cy="486.648" r="117.143" fx="605.714" fy="486.648" gradientTransform="matrix(.01205 0 0 .00824 13.239 18.98)" gradientUnits="userSpaceOnUse" xlink:href="#c"/><radialGradient id="g" cx="605.714" cy="486.648" r="117.143" fx="605.714" fy="486.648" gradientTransform="matrix(-.01205 0 0 .00824 10.761 18.98)" gradientUnits="userSpaceOnUse" xlink:href="#c"/><linearGradient id="f" x1="302.857" x2="302.857" y1="366.648" y2="609.505" gradientTransform="matrix(.0352 0 0 .00824 -.725 18.98)" gradientUnits="userSpaceOnUse" xlink:href="#d"/><linearGradient id="e"><stop offset="0" stop-color="#64baff"/><stop offset="1" stop-color="#3689e6"/></linearGradient><linearGradient id="m" x1="4.334" x2="4.334" y1="6.526" y2="29.474" gradientTransform="translate(-17 -13)" gradientUnits="userSpaceOnUse" xlink:href="#e"/><linearGradient id="k" x1="4.334" x2="4.334" y1="6.526" y2="29.474" gradientTransform="translate(-17 -13)" gradientUnits="userSpaceOnUse" xlink:href="#e"/><linearGradient id="l" x1="4.334" x2="4.334" y1="6.526" y2="29.474" gradientTransform="translate(-17 -13)" gradientUnits="userSpaceOnUse" xlink:href="#e"/></defs><path fill="url(#f)" d="M3.5 22h17v2h-17z" opacity=".15"/><path fill="url(#g)" d="M3.5 22v2c-.62.004-1.5-.448-1.5-1s.692-1 1.5-1z" opacity=".15"/><path fill="url(#h)" d="M20.5 22v2c.62.004 1.5-.448 1.5-1s-.692-1-1.5-1z" opacity=".15"/><path fill="url(#i)" d="M4 2l16 .001V22H4V2z"/><path fill="none" stroke="url(#j)" stroke-linecap="round" d="M19.5 21.5h-15v-19h15z"/><path fill="none" stroke="#000" stroke-linejoin="round" d="M3.5 1.5l17 .001V22.5h-17v-21z" opacity=".3"/><g transform="translate(-20.094 4.422)"><circle cx="37.094" cy="12.578" r="6.5" fill="#d4d4d4"/><circle cx="37.094" cy="12.578" r="7" fill="#555761" opacity=".5"/><g transform="translate(31.094 6.578)"><circle cx="6" cy="6" r="6" fill="#fff"/><path fill="url(#k)" d="M12 6A6 6 0 1 1 8.826.707L6 6z" color="#000" opacity=".5"/><path fill="url(#l)" d="M12 6.017c0 2.602-1.892 5.089-4.399 5.783S2.193 11.334.855 9.103C.845 9.113 6 6.017 6 6.017z" color="#000" opacity=".5"/><path fill="url(#m)" d="M12 6.004c0 2.601-1.892 5.088-4.399 5.782C7.542 11.776 6 6.004 6 6.004z" color="#000"/></g></g></svg>
