<?xml version="1.0" encoding="UTF-8"?><svg xmlns="http://www.w3.org/2000/svg" xmlns:xlink="http://www.w3.org/1999/xlink" version="1.1" width="24" height="24" viewBox="0 0 24 24" preserveAspectRatio="none"><defs><linearGradient id="a"><stop offset="0" stop-opacity=".392"/><stop offset=".5" stop-opacity=".314"/><stop offset="1" stop-opacity="0"/></linearGradient><radialGradient id="d" cx="23.071" cy="35.127" r="10.319" fx="23.071" fy="35.127" gradientTransform="matrix(.91481 .01265 -.00822 .21356 2.254 27.189)" gradientUnits="userSpaceOnUse" xlink:href="#a"/><linearGradient id="b"><stop offset="0" stop-color="#777976"/><stop offset="1" stop-color="#565755"/></linearGradient><linearGradient id="e" x1="11.192" x2="11.192" y1="3" y2="22" gradientUnits="userSpaceOnUse" xlink:href="#b"/><linearGradient id="f" x1="36.011" x2="16.331" y1="13.023" y2="32.702" gradientTransform="matrix(.53153 -.53097 .53153 .53097 -14.042 11.965)" gradientUnits="userSpaceOnUse" xlink:href="#c"/><linearGradient id="c"><stop offset="0" stop-color="#fff"/><stop offset="1" stop-color="#fff" stop-opacity="0"/></linearGradient><linearGradient id="g" x1="28.449" x2="16.331" y1="20.584" y2="32.702" gradientTransform="matrix(.53153 -.53097 .53153 .53097 -14.578 12.233)" gradientUnits="userSpaceOnUse" xlink:href="#c"/></defs><path fill="url(#d)" d="M33.278 34.94a10.32 2.32 0 1 1-20.638 0 10.32 2.32 0 1 1 20.638 0z" opacity=".4" transform="matrix(1.16287 0 0 .96975 -14.698 -12.134)"/><path fill="url(#e)" stroke="#4d4d4d" stroke-linejoin="round" d="M21.5 17.8l-5.501-5.303 5.293-5.556L17.476 3.5l-5.448 5.294L6.47 3.5 2.5 7.068l5.558 5.406-5.558 5.32L6.47 21.5l5.552-5.559 5.565 5.559 3.913-3.7z"/><path fill="none" stroke="url(#f)" stroke-linecap="square" d="M19.904 6.984l-2.409-2.1L12 10.193l-5.5-5.38L4 7.074" opacity=".4"/><path fill="none" stroke="url(#g)" d="M20.398 18.05l-5.457-5.258m-5.916.215l-5.56 5.311" opacity=".4"/></svg>
