<?xml version="1.0" standalone="no"?> <!DOCTYPE svg PUBLIC "-//W3C//DTD SVG 1.0//EN" "http://www.w3.org/TR/2001/REC-SVG-20010904/DTD/svg10.dtd" > <svg xmlns="http://www.w3.org/2000/svg" width="100%" height="100%">
<defs >
<font id="Florentine" horiz-adv-x="566" ><font-face
    font-family="Florentine"
    units-per-em="1000"
    panose-1="0 0 0 0 0 0 0 0 0 0"
    ascent="945"
    descent="-502"
    alphabetic="0" />
<missing-glyph horiz-adv-x="800" d="M50 0V800H750V0H50ZM700 50V750H100V50H700Z" />
<glyph unicode=" " glyph-name="space" horiz-adv-x="717" />
<glyph unicode="!" glyph-name="exclam" horiz-adv-x="299" d="M262 752Q243 679 218 547Q202 466 179 334Q170 285 162 236L149 235Q145 242 144 245Q139 256 139 261Q139 337 152 479Q156 521 176 711L246 754L262 752ZM165 82Q165 54 148 23T110 -8Q100 -8
94 0T88 22Q88 43 104 73T138 103Q165 103 165 82Z" />
<glyph unicode="&quot;" glyph-name="quotedbl" horiz-adv-x="400" d="M504 666L364 399H302L347 666H504ZM319 666L179 399H117L162 666H319Z" />
<glyph unicode="#" glyph-name="numbersign" horiz-adv-x="551" d="M563 454L541 391H439L405 290H506L484 227H382L303 0H233L312 227H208L129 0H60L139 227H28L50 290H161L196 391H86L108 454H218L292 667H362L287 454H392L466 667H536L462 454H563ZM369 391H265L230
290H335L369 391Z" />
<glyph unicode="$" glyph-name="dollar" horiz-adv-x="693" d="M739 493L657 457Q661 485 637 495T574 506L536 504L478 266Q510 235 543 205Q579 166 579 132Q579 68 517 34Q471 9 392 -1L329 -132L317 -142L356 -5Q350 -6 347 -6Q338 -7 328 -7Q244 -7 127 42T10
131Q10 158 25 182T64 213L80 211Q59 203 53 188T46 150Q46 110 138 66T319 21Q334 21 343 22T368 26L430 232Q350 296 339 307Q292 355 292 409Q292 445 366 482Q428 513 503 529L505 653L563 699Q575 689 575 677L544 535Q581 540 606 540Q646 540 677 530T739
493ZM491 498Q427 498 389 473T351 398Q351 375 384 343Q404 324 444 296L491 498ZM522 85Q522 126 504 155T456 200L407 28Q413 26 427 26Q459 26 490 44T522 85Z" />
<glyph unicode="%" glyph-name="percent" horiz-adv-x="621" d="M635 784L627 761Q545 685 464 609Q319 469 241 361Q129 206 129 94Q129 49 169 16Q206 -14 246 -14Q340 -14 425 67T510 230Q510 249 504 262Q502 266 498 271Q478 236 445 212T376 187Q346 187
336 200T325 236Q325 276 363 312Q396 343 445 359L420 387Q438 411 475 411Q483 411 486 410Q523 370 523 314Q532 300 536 293Q550 269 550 244Q550 148 421 46Q298 -51 201 -51Q153 -51 120 -18Q84 18 84 80Q84 166 154 275Q203 351 311 474Q441 622 478 671Q454
653 402 640T297 615Q305 593 309 580T313 553Q313 481 219 413Q136 353 76 353Q49 353 31 377T13 439Q13 507 61 563Q104 613 172 636L160 654L187 683Q207 674 228 666Q261 653 283 653Q371 653 472 692T627 783L635 784ZM459 295Q457 305 454 316T438 327Q409
327 389 307T369 255Q369 214 400 214Q424 214 443 242T459 295ZM270 532Q270 566 249 588T187 611Q156 611 114 566T72 484Q72 444 88 425T133 405Q180 405 225 445T270 532Z" />
<glyph unicode="&amp;" glyph-name="ampersand" horiz-adv-x="979" d="M999 377Q999 301 877 273Q811 258 699 258Q699 151 523 66Q362 -12 199 -12Q129 -12 74 13Q13 41 13 84Q13 135 67 185T232 287Q222 297 213 308T204 344Q204 432 346 490Q461 537 566 537Q584
537 609 522Q622 514 631 514Q611 497 597 489T561 475Q548 481 534 487T499 494Q406 494 331 462Q246 426 246 371Q246 343 270 328T328 313H391Q416 313 439 313T490 307Q474 285 455 271L294 273Q262 273 174 227Q70 173 70 124Q70 74 149 52Q209 35 296 35Q397
35 500 75Q642 130 642 228Q642 260 626 290Q621 300 609 314Q643 331 682 344Q712 317 758 307T858 297Q895 297 921 314T948 359Q948 386 920 402Q884 422 816 422L805 428Q815 438 832 445Q841 446 861 446Q916 446 952 432Q999 414 999 377Z" />
<glyph unicode="&apos;" glyph-name="quotesingle" horiz-adv-x="214" d="M319 666L179 399H117L162 666H319Z" />
<glyph unicode="(" glyph-name="parenleft" horiz-adv-x="381" d="M406 637Q402 625 400 618Q393 597 387 588Q270 588 198 470Q136 368 136 240Q136 153 166 83T258 -37L227 -96Q154 -48 121 32Q92 103 92 206Q92 330 141 423Q180 496 252 554Q284 580 375 635L406 637Z" />
<glyph unicode=")" glyph-name="parenright" horiz-adv-x="361" d="M307 346Q307 236 255 138Q213 59 141 -6Q83 -58 35 -76L23 -74Q21 -64 27 -40Q28 -36 30 -28Q144 -28 207 88Q260 185 260 320Q260 407 224 481Q185 561 115 604Q128 631 130 635Q137 647 148
664Q213 639 260 541T307 346Z" />
<glyph unicode="*" glyph-name="asterisk" horiz-adv-x="574" d="M549 295L535 277L318 283L441 104L445 78L309 242L316 51L275 111L281 256L141 150L80 143L275 285L102 289L49 338L256 318L123 459L129 504L289 322L291 512L305 502L316 311L490 443H502L484
410L361 305L549 295Z" />
<glyph unicode="+" glyph-name="plus" horiz-adv-x="551" d="M528 311L505 245H300L228 36H154L226 245H21L44 311H249L321 520H394L323 311H528Z" />
<glyph unicode="," glyph-name="comma" horiz-adv-x="277" d="M184 -22Q184 -62 158 -106Q141 -136 102 -180L90 -170Q115 -142 129 -118Q147 -87 147 -59Q147 -42 141 -27T119 2Q115 1 106 1Q92 1 81 5T70 18Q70 51 73 59T93 67Q126 67 155 38T184 -22Z" />
<glyph unicode="-" glyph-name="hyphen" horiz-adv-x="220" d="M190 232L144 168H-52L-5 232H190Z" />
<glyph unicode="." glyph-name="period" horiz-adv-x="232" d="M177 56Q177 29 163 12T120 -6Q90 -6 71 10T51 57Q51 86 67 104T118 122Q146 122 161 103T177 56Z" />
<glyph unicode="/" glyph-name="slash" horiz-adv-x="395" d="M462 666L-80 -177H-143L397 666H462Z" />
<glyph unicode="0" glyph-name="zero" horiz-adv-x="703" d="M648 324Q648 205 563 120Q497 54 389 16Q304 -14 247 -14Q156 -14 104 27Q45 73 45 168Q45 305 182 464T430 623Q441 623 460 616Q466 614 477 609L424 572Q420 574 417 575Q396 584 383 584Q302 584
207 452T111 204Q111 123 165 69Q216 18 288 18Q412 18 506 105T600 303Q600 380 563 438Q521 504 450 504Q388 504 331 445Q285 397 266 340L256 348Q311 537 500 537Q569 537 611 472Q648 415 648 324Z" />
<glyph unicode="1" glyph-name="one" horiz-adv-x="703" d="M541 27Q513 14 432 6T256 -3Q171 -3 115 4Q124 20 132 29T154 49Q168 50 178 50T194 51Q229 51 262 45Q272 82 299 195Q321 284 335 347Q355 433 369 498L357 502Q320 475 279 460T194 444Q182 444
169 445T143 449Q147 469 164 484L208 481Q271 481 321 505Q379 533 379 574Q408 607 457 607L463 592L316 74V43Q352 39 393 36T476 33Q483 33 490 34Q523 39 525 39L541 27Z" />
<glyph unicode="2" glyph-name="two" horiz-adv-x="703" d="M688 137Q688 72 602 23T419 -26Q367 -26 301 -4Q157 44 144 44Q111 44 74 29Q47 18 10 -6Q7 2 12 16Q127 84 199 137Q302 213 357 282Q423 365 423 444Q423 478 402 503Q371 540 303 540Q263 540 219
520Q181 503 143 473L131 490Q208 554 251 572T344 590Q400 590 447 559Q488 532 488 508Q488 422 442 342Q403 275 330 210Q273 160 188 105L182 92Q215 95 325 57T465 18Q517 18 549 27Q611 44 645 94Q628 112 628 136Q629 150 632 159T643 168Q688 168 688 137Z"
/>
<glyph unicode="3" glyph-name="three" horiz-adv-x="703" d="M631 240Q631 138 524 60T293 -18Q189 -18 113 32Q46 76 46 120Q46 153 66 179Q82 199 115 221H123Q119 211 107 196Q86 170 86 163Q86 85 145 45Q200 8 296 8Q401 8 482 56Q574 111 574 198Q574 253
501 293Q435 329 360 329Q337 329 311 323T262 309Q271 324 287 342Q308 366 318 366Q412 366 477 394T542 468Q542 486 481 514Q414 545 359 545Q316 545 279 535T205 500V514Q243 551 295 569T404 588Q484 588 546 554Q602 523 602 492Q602 453 553 413Q511 379
475 371Q523 371 577 323T631 240Z" />
<glyph unicode="4" glyph-name="four" horiz-adv-x="703" d="M711 285L709 256Q655 222 635 212Q585 188 539 188Q507 188 480 187T425 185Q399 185 373 188L342 -14Q327 -20 315 -22T289 -23Q289 31 300 88Q308 127 328 197Q274 209 215 222T112 236Q77 236 44
230T-20 209Q-17 226 -2 238Q147 297 255 402Q351 495 404 613L482 623L386 220Q402 219 413 218Q492 211 543 211Q570 211 620 233T711 285ZM398 512Q317 423 249 362T141 281L137 270Q165 270 229 250T334 229Q355 264 376 369Q391 444 398 512Z" />
<glyph unicode="5" glyph-name="five" horiz-adv-x="703" d="M699 592Q669 592 593 593T506 594Q446 594 397 592T314 584L191 344Q217 350 247 355T302 360Q402 360 504 298T606 164Q606 75 525 30Q453 -10 328 -10Q232 -10 155 38Q70 91 70 172Q70 217 115 232Q112
221 111 205T110 188Q110 108 191 58Q263 14 356 14Q433 14 488 45T543 107Q543 197 459 261T276 326Q232 326 189 313T107 275L111 303Q162 358 198 429T252 576H236Q234 584 234 588Q234 598 241 607T256 617Q332 628 415 628Q475 628 522 624T696 603L699 592Z"
/>
<glyph unicode="6" glyph-name="six" horiz-adv-x="703" d="M658 222Q658 107 552 37Q459 -24 340 -24Q221 -24 148 35Q80 90 80 168Q80 329 202 457T475 586Q497 586 511 586Q595 582 635 553L625 527L543 502Q540 530 509 539Q492 544 452 544Q348 544 268 481Q204
431 166 350Q134 283 134 234Q134 205 138 187T152 145Q170 245 260 318T440 392Q533 392 595 346T658 222ZM608 184Q608 258 558 309T430 361Q337 361 268 294T199 133Q199 68 266 35Q321 8 400 8Q478 8 540 55Q608 107 608 184Z" />
<glyph unicode="7" glyph-name="seven" horiz-adv-x="703" d="M654 602L650 584L566 576Q541 548 469 440Q390 319 312 198Q221 58 137 -68L129 -66L146 -12L480 572Q413 572 364 571T271 569Q185 569 135 574T64 594Q88 615 97 620Q118 633 139 633Q162 614 258
606T477 598Q501 598 537 605Q549 607 570 613Q596 598 622 598Q630 598 654 602Z" />
<glyph unicode="8" glyph-name="eight" horiz-adv-x="703" d="M648 525Q648 490 492 400Q401 347 383 334Q441 288 469 262Q555 184 555 152Q555 67 502 26T326 -16Q315 -16 303 -16T283 -16Q159 -16 121 12T82 96Q82 154 143 213Q221 268 299 324Q267 344 248
376T228 442Q228 513 346 568Q445 614 518 614Q569 614 603 596Q648 572 648 525ZM596 502Q596 536 549 559Q510 578 474 578Q411 578 355 546T298 464Q298 440 323 404Q342 377 364 356Q413 374 493 418Q596 475 596 502ZM492 84Q492 141 456 187Q453 191 316
305Q252 265 189 225Q128 181 128 128Q128 83 180 49T323 14Q426 14 459 28T492 84Z" />
<glyph unicode="9" glyph-name="nine" horiz-adv-x="703" d="M631 362Q631 300 596 217Q552 113 478 49Q384 -32 258 -32Q192 -32 146 -4Q92 29 92 88Q92 112 115 144T160 207Q157 195 149 172T140 128Q140 64 199 30Q247 2 316 2Q398 2 481 93T564 274Q564 314
563 340T559 379Q519 332 479 303Q417 258 362 258Q303 258 272 294T240 386Q240 458 291 548Q356 662 449 662Q547 662 596 545Q631 461 631 362ZM563 428Q552 498 511 562T434 627Q381 627 343 565T304 428Q304 372 325 339T389 305Q449 305 495 348Q541 404
563 428Z" />
<glyph unicode=":" glyph-name="colon" horiz-adv-x="285" d="M211 234Q190 218 167 208T119 197L66 244Q85 261 104 278Q123 289 152 289L211 234ZM195 66Q184 64 159 47T109 29L51 76Q58 98 85 110T141 123Q178 104 195 66Z" />
<glyph unicode=";" glyph-name="semicolon" horiz-adv-x="293" d="M182 168L137 133Q129 152 114 165T78 182Q78 200 101 216Q108 221 125 229Q154 218 166 208Q186 191 182 168ZM192 -18Q192 -58 166 -102Q149 -132 110 -176L98 -166Q123 -138 137 -114Q155 -83
155 -55Q155 -38 149 -23T127 6Q123 5 114 5Q100 5 89 9T78 22Q78 55 81 63T101 71Q134 71 163 42T192 -18Z" />
<glyph unicode="&lt;" glyph-name="less" horiz-adv-x="500" d="M586 640L561 569L171 368L348 208L392 76L68 368L71 377L586 640Z" />
<glyph unicode="=" glyph-name="equal" horiz-adv-x="551" d="M553 384L531 318H47L70 384H553ZM503 238L480 171H-4L19 238H503Z" />
<glyph unicode="&gt;" glyph-name="greater" horiz-adv-x="500" d="M486 348L483 339L-32 76L-8 147L371 352L193 512L162 640L486 348Z" />
<glyph unicode="?" glyph-name="question" horiz-adv-x="518" d="M495 552Q495 476 398 401T199 251Q199 241 210 232Q238 209 240 203L225 180Q221 182 213 182Q206 182 191 178T170 174Q161 174 156 176Q135 200 135 225Q135 266 208 306Q324 370 345 387Q420
447 420 531Q420 580 375 617Q334 650 291 650Q239 650 185 625Q138 603 105 572L111 613Q151 634 192 655Q255 686 275 686Q353 686 417 655Q495 617 495 552ZM203 18L143 -8Q128 -8 121 9T113 52Q113 60 115 74L180 102Q192 96 198 79T205 39Q205 32 203 18Z"
/>
<glyph unicode="@" glyph-name="at" horiz-adv-x="737" d="M723 452Q723 354 657 276Q588 194 491 194Q436 194 415 223Q371 197 326 197Q244 197 244 261Q244 326 297 381T420 437Q459 437 474 419L573 436L506 261Q502 249 502 240Q502 223 525 223Q580 223
620 326Q652 408 652 475Q652 537 607 578T494 619Q367 619 254 461Q149 314 149 180Q149 117 199 81T339 44Q426 44 504 71Q572 100 640 130L655 111Q655 90 538 50T342 10Q221 10 141 71T60 225Q60 377 200 514T491 651Q591 651 657 594T723 452ZM461 405Q445
419 430 419Q399 419 369 348Q343 286 343 248Q343 223 368 223Q375 223 383 226T408 238Q406 246 406 251Q406 267 412 280L461 405Z" />
<glyph unicode="A" glyph-name="A" horiz-adv-x="729" d="M673 189Q644 111 599 56Q547 -7 496 -7Q460 -7 446 30T432 129Q432 183 436 257Q437 283 441 327Q406 321 363 318T283 315Q236 248 210 210Q163 141 139 103Q107 52 74 -9Q45 -6 16 -22L240 316Q235
325 232 327Q217 327 206 334T194 354Q194 362 196 369Q196 371 199 376Q218 376 232 383T255 400Q262 400 271 397T292 389L479 674L549 723H564Q539 581 531 510T523 381L638 378L630 365L520 339Q509 315 502 254T495 129Q495 100 507 79T535 58Q568 58 605
102Q618 118 664 189H673ZM472 594L331 388L342 375L452 372L472 594Z" />
<glyph unicode="B" glyph-name="B" horiz-adv-x="675" d="M657 153Q657 80 566 40T309 0Q259 0 212 3T105 15L92 32Q103 52 131 146T157 260H112Q116 276 123 287Q131 293 147 300T174 315Q188 375 194 409Q215 515 215 554Q230 570 250 580T292 589L253 332Q273
330 301 329T342 327Q388 327 451 358Q533 398 533 456Q533 528 431 572Q319 620 107 620Q94 620 54 612Q32 607 11 603Q8 616 16 626Q41 638 53 644Q69 653 85 662Q169 662 280 645Q421 623 507 587Q617 541 617 479Q617 442 547 391Q484 345 422 325V315Q521
299 574 272Q657 230 657 153ZM582 156Q582 227 494 255Q425 277 277 277Q262 277 246 277T223 262Q221 259 196 165Q188 135 171 73Q219 40 265 29T373 17Q441 17 494 38Q582 73 582 156Z" />
<glyph unicode="C" glyph-name="C" horiz-adv-x="713" d="M701 133L686 81Q651 51 624 36Q540 -9 432 -9Q274 -9 157 49Q15 119 15 246Q15 383 174 502Q320 611 450 611Q517 611 584 571Q644 535 658 498Q647 486 626 481T582 475Q575 475 567 476T555 477Q547
527 526 550Q499 579 441 579Q333 579 221 477T108 264Q108 159 186 87Q274 6 429 6Q514 6 578 42Q632 88 687 134L701 133Z" />
<glyph unicode="D" glyph-name="D" horiz-adv-x="761" d="M743 283Q743 169 658 95Q596 41 495 13Q430 -5 393 -5Q343 -5 256 6T143 17Q131 17 112 9T82 -7L84 19L144 76Q169 164 194 252Q218 367 218 574L201 575V592L283 631L296 628Q300 616 302 606T305 582Q305
467 283 357Q268 284 237 188Q203 84 201 76Q221 67 283 56T402 45Q513 45 564 69Q672 119 672 273Q672 467 559 569Q459 660 297 660Q163 660 95 595T27 396Q27 339 45 296H37Q11 326 -3 360T-18 432Q-18 506 49 584Q140 690 297 690Q499 690 625 566Q743 450
743 283Z" />
<glyph unicode="E" glyph-name="E" horiz-adv-x="703" d="M716 648L709 622Q639 609 543 604T344 598L277 392Q386 373 510 373Q554 373 592 376T656 386Q608 350 485 335Q394 324 257 324Q219 254 199 209Q166 133 166 91Q166 79 169 70Q185 77 204 80T242 84Q288
84 327 66T392 48Q475 48 558 66T681 115Q652 65 594 34T477 2Q440 2 420 3Q339 7 326 7Q308 7 263 -3Q241 -8 226 -8Q211 -8 170 1T102 10Q73 10 53 7T9 -9Q16 23 55 46Q83 63 128 76L184 320L126 332L178 395H204L240 600Q228 608 212 608Q196 608 176 600Q127
581 115 581L126 605L198 674Q202 674 280 667Q403 656 462 652Q581 644 645 644Q653 644 656 644Q699 644 716 648Z" />
<glyph unicode="F" glyph-name="F" horiz-adv-x="535" d="M664 655Q643 633 617 625T562 617Q552 617 543 617T524 618H446Q400 618 368 616T306 605L249 403Q253 391 269 387T316 382Q340 382 399 385T481 389L520 376Q498 353 470 344T399 335Q360 335 337 337T232
351L137 72L143 51L242 32Q210 -5 177 -5Q169 -5 150 -1T127 4Q113 4 98 2T79 -1L-13 2L45 53Q58 49 73 49Q90 49 105 56L159 332L124 334L126 351L180 381L217 605L117 603Q139 632 157 645Q180 662 210 667L594 655L618 652Q630 657 634 659Q642 662 649 662Q658
662 664 655Z" />
<glyph unicode="G" glyph-name="G" horiz-adv-x="660" d="M708 552Q689 539 671 530T633 515Q621 552 580 568T489 585Q325 585 196 457Q75 337 75 204Q75 125 140 75T298 24Q368 24 455 73Q488 91 594 166Q613 166 628 158Q615 103 602 49Q562 -77 498 -154Q406
-264 276 -264Q180 -264 69 -188T-43 -40Q21 -129 123 -183Q215 -231 294 -231Q371 -231 429 -159Q472 -106 500 -18Q522 52 520 75Q493 55 387 20T237 -15Q169 -15 95 41T20 152Q20 350 193 490Q351 618 537 618Q639 618 708 552Z" />
<glyph unicode="H" glyph-name="H" horiz-adv-x="713" d="M765 672Q757 650 739 624T711 597Q690 597 671 605Q671 589 648 503T625 375Q625 361 626 355L666 353L671 330L607 285Q593 262 586 138Q583 85 583 56H660L666 42Q642 15 602 0Q539 0 484 7L531 300Q423
312 331 318T137 324Q128 322 123 229T117 56H191L196 34L146 0H37L18 9L65 327Q48 330 33 332T2 334Q-7 334 -17 333T-34 330Q-66 335 -89 335Q-101 334 -107 334L-119 341Q-96 345 11 356Q75 363 82 372L157 645L22 652Q23 664 32 673Q70 690 132 701T255 712L212
638L196 640Q144 480 144 363Q168 359 208 356T270 352Q309 352 414 356T557 360L635 605Q609 613 591 613Q564 613 520 597L508 598Q511 605 518 615Q524 621 525 623Q574 643 623 664Q653 672 765 672Z" />
<glyph unicode="I" glyph-name="I" horiz-adv-x="387" d="M429 669Q418 620 382 598Q371 598 361 598T338 603Q313 548 289 424Q273 339 258 223Q247 136 247 125Q247 108 251 79Q252 70 255 53L345 38L351 22L288 -17Q240 -7 184 -3T81 2Q57 2 43 2T18 0V15Q43
30 72 38T132 47Q137 47 143 47Q151 45 155 45L279 605Q215 605 183 604T112 594L119 611Q208 645 279 657T429 669Z" />
<glyph unicode="J" glyph-name="J" horiz-adv-x="638" d="M677 669Q677 630 670 580T655 484Q632 291 556 169Q496 71 407 24Q343 -10 284 -10Q184 -10 106 52Q24 117 24 207Q24 249 63 309Q96 359 132 390Q102 337 93 316Q78 280 78 246Q78 153 157 84Q230 20
308 20Q414 20 484 113Q538 184 566 303Q587 391 587 454Q587 499 589 538T594 614Q585 615 577 615T557 616Q532 616 494 614T450 611L518 665Q547 665 585 668T650 674Q668 674 677 669Z" />
<glyph unicode="K" glyph-name="K" horiz-adv-x="769" d="M775 175L773 127Q753 82 689 38T575 -6Q496 -6 402 68Q379 86 257 205Q183 277 153 272L65 25Q38 8 18 5L85 226Q85 240 83 249T72 267L70 269L112 325Q129 407 136 462T144 551Q144 569 143 584T137
650Q136 650 116 646T79 642Q69 642 65 643Q65 671 113 696T208 722Q215 722 227 720L180 363L238 341Q322 399 363 435Q425 490 462 550Q505 620 514 703Q534 713 550 718T585 723Q567 615 463 499Q380 407 263 330Q290 289 344 228Q414 148 473 103Q552 42 608
42Q673 42 724 117Q743 147 763 177L775 175Z" />
<glyph unicode="L" glyph-name="L" horiz-adv-x="596" d="M587 142L576 98Q539 57 513 37Q434 -24 357 -24Q304 0 248 19T132 38Q99 38 70 29T16 2Q11 20 13 29Q30 58 63 79Q107 142 149 331T191 674Q207 690 223 699T259 712Q262 704 263 699Q268 680 268 665Q268
591 220 408T124 108Q142 104 153 103Q186 98 206 98Q233 98 305 65T431 32Q475 32 516 66Q533 80 587 142Z" />
<glyph unicode="M" glyph-name="M" horiz-adv-x="1360" d="M1348 86Q1327 50 1276 17Q1232 -12 1212 -12Q1170 -12 1141 20T1112 90Q1112 136 1120 230T1138 418T1147 560Q1081 494 1012 396Q956 316 891 206Q878 184 776 4L633 552Q598 472 563 393Q489 227 416
134Q308 -3 195 -3Q107 -3 58 66Q18 122 18 188Q18 219 28 238T51 264Q51 171 97 103T211 34Q311 34 392 139Q458 224 512 378Q546 475 587 640Q563 640 539 636T486 622Q506 645 529 665T576 699L683 703L701 674Q718 565 745 431T806 156Q840 211 930 330Q1033
466 1079 532Q1159 646 1181 703Q1202 717 1216 724Q1237 734 1256 734Q1228 618 1206 474T1184 257Q1184 152 1190 117Q1203 41 1249 41Q1272 41 1288 47T1348 86Z" />
<glyph unicode="N" glyph-name="N" horiz-adv-x="708" d="M781 692Q737 556 676 347Q624 170 598 70L633 38L578 -19Q486 71 379 240T222 547L72 25Q58 16 46 10T20 2Q88 171 123 333T159 631L61 623L65 648L126 701Q144 699 160 698T200 697Q242 697 283 703Q294
586 340 480Q376 398 445 293Q508 198 571 104Q607 215 644 326Q683 468 683 614H609Q606 628 614 648Q643 660 660 669Q682 682 693 688Q699 687 705 687Q711 687 718 687Q737 687 746 688T781 692Z" />
<glyph unicode="O" glyph-name="O" horiz-adv-x="638" d="M651 450Q651 260 508 120Q373 -12 213 -12Q121 -12 68 47Q20 101 20 180Q20 270 63 379Q114 510 200 590Q304 688 439 688Q521 688 586 612T651 450ZM578 392Q578 503 519 568Q466 626 390 626Q255 626
166 499Q88 388 88 264Q88 169 126 113Q175 40 285 40Q402 40 488 139Q578 242 578 392Z" />
<glyph unicode="P" glyph-name="P" horiz-adv-x="576" d="M572 682Q563 626 554 570Q522 441 455 362Q360 250 204 250Q194 250 190 250Q167 250 146 253L72 -106Q56 -116 37 -124T-2 -142Q24 22 68 214Q102 360 135 504T168 723Q168 742 157 751T128 760Q113
760 98 755T68 743L65 759Q114 811 192 811Q219 811 228 773Q234 748 234 699Q234 660 223 601Q220 582 212 550Q236 581 260 613Q319 685 373 730Q448 793 500 793Q537 793 553 757Q560 741 572 682ZM524 598Q524 673 502 709Q484 738 454 738Q371 738 271 592T171
331Q189 311 211 303T264 294Q386 294 463 416Q524 512 524 598Z" />
<glyph unicode="Q" glyph-name="Q" horiz-adv-x="643" d="M724 -62Q695 -129 647 -168Q593 -211 523 -211Q443 -211 341 -152Q307 -133 255 -93H204Q200 -87 206 -75Q227 -57 255 -51T316 -45Q361 -19 406 6Q488 59 533 123Q597 215 597 334Q597 445 536 533Q472
626 382 626Q271 626 174 468Q85 323 85 199Q85 123 129 71Q177 14 257 14Q294 14 347 34Q389 50 405 62L425 64Q385 18 326 2Q285 -9 207 -9H159Q101 -9 57 45T12 170Q12 333 139 495Q275 669 439 669Q543 669 601 586Q655 509 655 385Q655 244 563 125Q481 20
344 -49L347 -66Q388 -103 414 -121Q495 -177 562 -177Q597 -177 646 -127Q688 -84 718 -29L724 -62Z" />
<glyph unicode="R" glyph-name="R" horiz-adv-x="643" d="M639 153Q639 73 598 34Q552 -10 448 -10Q402 -10 299 56T123 199L39 -22L0 -24L70 236L49 283Q60 297 67 300Q71 302 87 302Q98 341 109 380Q141 493 151 531Q173 616 171 628Q149 633 130 633Q94 633
51 620Q16 610 -18 592L0 626Q41 656 78 664T163 673Q183 673 194 673Q293 673 377 616T461 490Q461 409 393 345Q346 301 265 267Q208 243 196 243Q239 184 308 121Q408 30 469 30Q550 30 585 69Q589 74 630 154L639 153ZM386 452Q386 499 347 552T272 606Q265
606 253 600L157 290Q162 287 176 283T198 279Q264 279 318 318Q386 367 386 452Z" />
<glyph unicode="S" glyph-name="S" horiz-adv-x="668" d="M662 716Q641 693 625 680T585 656Q575 668 566 672Q549 680 526 680Q444 680 365 631T286 528Q286 470 380 422Q468 381 556 341Q652 287 652 218Q652 123 532 54Q418 -11 280 -11Q132 -11 65 26Q18 52
18 89Q18 117 39 142Q56 162 82 173Q75 149 75 126Q75 66 136 43T332 19Q410 19 490 59Q588 108 588 182Q588 247 494 291Q406 326 319 362Q224 409 224 478Q224 579 367 665Q495 742 596 742Q613 742 630 735T662 716Z" />
<glyph unicode="T" glyph-name="T" horiz-adv-x="587" d="M729 617L716 597Q664 597 555 590T392 583Q372 583 339 430Q316 327 287 145Q275 68 263 -9Q251 -20 239 -26T206 -38Q222 78 240 199Q263 359 268 394Q279 475 279 494V577Q138 577 -7 594Q-7 603 -4
608Q19 618 48 634T88 660Q147 643 292 634Q372 629 537 625T729 617Z" />
<glyph unicode="U" glyph-name="U" horiz-adv-x="865" d="M885 206Q810 101 796 86Q713 0 615 0Q583 0 558 30Q530 64 530 114Q530 175 558 316Q578 419 599 522Q546 432 493 342Q401 192 325 110Q219 -4 132 -4Q73 -4 41 22T9 93Q9 110 13 125L139 633Q156 637
173 645T222 674Q183 542 136 369Q80 163 80 134Q80 108 100 70T140 32Q213 32 301 123Q378 203 468 351Q537 465 628 645Q644 642 666 651Q697 664 703 665Q673 547 659 486Q635 383 623 305Q608 208 608 134Q608 90 616 74Q631 44 679 44Q719 44 775 100T874
233L881 231L885 206Z" />
<glyph unicode="V" glyph-name="V" horiz-adv-x="539" d="M599 668Q599 609 526 458T365 178Q264 30 191 -17L150 -24Q150 7 150 39T151 103Q151 307 130 411T66 600Q52 606 40 606Q28 606 20 604Q15 603 0 597L2 611Q31 636 47 648Q96 685 112 679Q166 596 193
492Q216 404 222 292Q225 238 225 86Q276 128 344 214Q425 317 473 411Q533 529 533 614Q523 620 519 624Q505 637 505 648Q505 661 538 674T596 685L599 668Z" />
<glyph unicode="W" glyph-name="W" horiz-adv-x="840" d="M960 682Q960 641 919 573Q906 551 785 371Q657 180 541 -12H531L455 509Q360 399 282 277T126 -5L80 -17Q97 53 107 135T118 293Q118 386 103 461T53 600Q40 596 30 593T0 583Q13 623 52 646T131 669Q149
620 172 498T196 292Q196 243 187 211Q207 226 277 320Q326 386 397 488Q427 531 457 575L467 616L529 643Q535 607 546 507Q562 362 565 335Q577 239 592 171Q686 296 781 421Q890 575 890 636Q890 673 867 690Q849 703 818 703Q811 703 803 702T791 701Q799 716
808 723Q836 746 886 746Q913 746 936 726T960 682Z" />
<glyph unicode="X" glyph-name="X" horiz-adv-x="827" d="M803 161Q777 92 724 43Q666 -11 603 -11Q530 -11 480 98Q447 184 415 270Q281 154 152 62Q17 -35 -12 -35Q-17 -35 -22 -33Q-22 -15 -5 -4T32 8Q124 62 251 165Q389 278 415 328L327 612L291 618Q291
621 293 626Q295 630 297 634Q307 637 348 659Q378 675 397 675L473 384Q543 466 576 516Q621 584 649 661Q683 673 714 673Q704 637 664 576Q636 533 575 456Q528 397 482 339Q496 249 536 158Q588 37 645 37Q704 37 751 96Q763 112 794 161H803Z" />
<glyph unicode="Y" glyph-name="Y" horiz-adv-x="608" d="M727 660Q723 653 719 647T709 636Q631 636 538 549Q468 484 391 370Q338 292 304 226Q299 196 281 144Q268 106 268 76Q268 70 269 62T270 49Q283 46 296 45T323 44Q340 44 377 46T435 49Q413 12 371
4T204 -5Q180 -5 140 1Q127 3 104 7Q104 34 127 50T189 66Q216 145 223 176Q234 226 234 294Q210 382 151 496Q89 617 62 617Q41 617 24 608Q21 606 -7 587L-4 603Q14 633 45 658T105 683Q145 683 206 573Q259 478 313 330Q372 405 421 461Q495 546 559 600Q637
666 681 666Q699 666 709 664T727 660Z" />
<glyph unicode="Z" glyph-name="Z" horiz-adv-x="875" d="M879 245Q879 211 849 158Q809 87 740 42Q649 -17 525 -17Q496 -17 379 24T205 65Q154 65 110 44Q69 17 28 -9H16L25 22Q63 51 101 80Q173 128 219 128Q229 128 234 127Q360 223 473 350Q580 470 643 581Q603
577 555 577Q494 577 430 584T304 600Q269 600 240 580Q227 571 187 532Q180 538 174 545T165 559Q187 594 240 625T334 656Q355 656 458 640T614 624Q669 624 704 631Q752 641 789 665L785 633L699 571Q634 483 493 335T288 141V124Q416 107 495 69Q556 40 662
40Q716 40 773 105Q836 177 836 262Q849 272 864 272Q879 272 879 245Z" />
<glyph unicode="[" glyph-name="bracketleft" horiz-adv-x="348" d="M308 666L303 643H205L21 -154H117L112 -177H-53L139 666H308Z" />
<glyph unicode="\" glyph-name="backslash" horiz-adv-x="390" d="M383 -177H324L73 666H133L383 -177Z" />
<glyph unicode="]" glyph-name="bracketright" horiz-adv-x="288" d="M251 666L59 -177H-110L-105 -154H-7L177 643H81L86 666H251Z" />
<glyph unicode="^" glyph-name="asciicircum" horiz-adv-x="127" d="M135 471L129 457L72 491L15 457L6 471L72 531L135 471Z" />
<glyph unicode="_" glyph-name="underscore" horiz-adv-x="508" d="M508 -135H0V-100H508V-135Z" />
<glyph unicode="`" glyph-name="grave" horiz-adv-x="264" d="M217 467H177Q146 487 103 546Q89 565 66 602H169Q181 531 217 467Z" />
<glyph unicode="a" glyph-name="a" horiz-adv-x="619" d="M642 171Q642 129 554 59T406 -11Q373 -11 361 16T349 93Q349 120 350 149T352 207Q270 110 193 50T70 -10Q41 -10 31 26Q26 45 26 86Q26 190 112 319Q213 470 341 470Q358 461 379 454T426 447Q435 454
444 461T464 468Q447 383 436 318Q415 195 415 123Q415 79 423 54T452 28Q477 28 550 84T642 171ZM370 348Q370 400 336 414Q319 421 263 421Q203 421 144 308Q92 209 92 154Q92 98 99 74T128 50Q185 50 275 153Q370 261 370 348Z" />
<glyph unicode="b" glyph-name="b" horiz-adv-x="489" d="M488 326Q488 200 406 93Q321 -18 216 -18Q137 -18 93 0T16 51Q60 168 94 322Q120 440 139 576Q143 606 162 761L234 811L244 809Q244 712 230 620T189 429Q177 382 144 276Q200 340 256 404Q327 472 396
472Q450 472 472 425Q488 391 488 326ZM422 296Q422 336 409 371Q390 422 352 422Q281 422 195 289Q118 170 95 68Q136 47 160 35Q206 12 232 12Q314 12 368 91T422 296Z" />
<glyph unicode="c" glyph-name="c" horiz-adv-x="505" d="M493 137Q479 86 382 39T210 -8Q117 -8 70 27T22 128Q22 226 142 334T376 442Q424 442 453 413Q479 387 479 351Q479 324 463 305H398Q406 327 406 343Q406 372 386 388T334 404Q247 404 174 326T100 142Q100
85 145 49Q183 19 223 19Q300 19 368 58Q428 93 468 151L493 137Z" />
<glyph unicode="d" glyph-name="d" horiz-adv-x="712" d="M722 233Q702 160 640 80Q564 -18 490 -18Q441 -18 414 12Q380 49 380 133Q380 183 391 239Q317 161 243 83Q154 0 85 0Q61 0 47 22Q28 51 28 106Q28 207 133 342Q248 490 368 490Q388 490 407 486T450
471L524 753L611 803L621 801Q557 631 507 431Q454 220 454 122Q454 92 471 63Q492 26 524 26Q561 26 610 81Q654 130 714 235L722 233ZM428 380Q428 406 398 426T334 446Q248 446 167 334Q92 230 92 148Q92 119 98 100Q108 70 128 70Q184 70 260 137Q325 195 376
271T428 380Z" />
<glyph unicode="e" glyph-name="e" horiz-adv-x="474" d="M472 159Q423 81 342 36T166 -10Q96 -10 61 13T26 90Q26 216 155 325Q275 426 385 426Q406 426 424 413T443 386Q443 347 363 298Q273 243 173 243Q161 243 155 243Q148 244 144 244Q119 216 105 187T91
130Q91 92 118 61Q152 22 208 22Q266 22 338 65T448 167L472 159ZM365 365Q365 378 357 381T331 385Q315 384 308 384Q275 384 224 344T172 275Q180 274 195 273T218 272Q252 272 305 301Q365 334 365 365Z" />
<glyph unicode="f" glyph-name="f" horiz-adv-x="475" d="M555 795L547 779Q528 794 518 801Q485 823 467 823Q396 823 354 702Q347 682 280 459Q315 459 391 461T544 468L532 453L497 451L483 441Q455 441 375 434T272 421Q177 7 53 -172Q-51 -322 -189 -322Q-266
-322 -309 -276Q-341 -236 -361 -212V-183Q-314 -235 -271 -261T-186 -288Q-84 -288 -10 -200Q56 -121 111 46Q154 178 207 419Q183 416 157 416Q133 416 121 417T83 423L104 455H215Q263 686 313 768T464 851Q481 851 508 834T555 795Z" />
<glyph unicode="g" glyph-name="g" horiz-adv-x="625" d="M649 366L623 320L495 -64Q441 -225 339 -336Q219 -466 79 -466Q-47 -466 -131 -391Q-200 -329 -200 -270Q-200 -227 -139 -166Q-119 -146 -77 -113H-62Q-114 -158 -131 -187T-148 -246Q-148 -309 -79
-371Q-5 -438 80 -438Q182 -438 267 -356Q331 -295 380 -196Q410 -136 424 -87Q427 -84 462 40Q473 81 497 163Q427 110 328 57Q197 -14 132 -14Q83 -14 53 0Q16 18 16 54Q16 156 139 265Q273 384 428 384Q471 384 522 368L649 366ZM528 263Q528 309 497 327T396
346Q265 346 174 259Q96 184 96 106Q96 80 107 56Q122 22 148 22Q246 22 390 120Q528 214 528 263Z" />
<glyph unicode="h" glyph-name="h" horiz-adv-x="584" d="M598 133Q549 76 518 43Q459 -20 422 -20Q391 -20 372 2T352 52Q352 60 353 64L423 382Q425 394 417 412T399 430Q344 430 279 347Q238 294 169 168Q96 34 75 2L16 0Q40 75 69 186Q109 341 134 474Q166
648 166 759Q197 779 238 786Q238 592 118 171Q206 313 281 394Q361 481 426 481Q449 481 473 452T497 392Q497 387 495 377L435 112Q432 98 432 82Q432 62 437 48T454 34Q479 34 531 83Q548 99 578 133H598Z" />
<glyph unicode="i" glyph-name="i" horiz-adv-x="377" d="M404 809L150 549H144L154 578L350 811Q367 822 389 822Q396 821 400 821Q405 812 404 809ZM369 195Q339 129 268 62Q190 -12 139 -12Q107 -12 80 5T53 50Q53 58 54 62L156 471Q174 489 192 496T242 509L251
491Q234 445 202 349Q185 299 154 205Q143 172 134 145T124 87Q124 60 134 43T167 25Q202 25 258 78T355 195H369Z" />
<glyph unicode="j" glyph-name="j" horiz-adv-x="345" d="M389 803Q389 789 323 735Q269 691 203 643T134 595L128 610Q178 654 222 697T311 787L389 803ZM284 502Q234 212 125 2Q33 -176 -88 -275Q-193 -361 -281 -361Q-366 -361 -404 -304Q-435 -258 -435 -172Q-435
-145 -432 -112T-422 -46L-392 -16Q-400 -67 -400 -116Q-400 -205 -369 -258Q-331 -323 -269 -323Q-100 -323 38 -78Q165 148 205 466Q228 483 243 491Q264 502 284 502Z" />
<glyph unicode="k" glyph-name="k" horiz-adv-x="631" d="M625 72L613 40Q579 19 553 7Q515 -10 486 -10Q432 -10 363 46Q306 99 250 152Q189 209 160 209Q147 209 130 171Q97 94 65 20L25 -6L12 -4Q51 123 91 251Q139 409 160 510Q189 651 189 775Q202 789 215
797T244 805Q254 805 259 803Q262 775 229 587T166 262Q175 258 189 258Q246 258 323 357Q383 434 422 519Q435 524 442 526T459 529Q477 529 485 515Q464 463 385 376T249 250Q314 180 380 110Q465 27 528 27Q555 27 589 48Q613 65 625 72Z" />
<glyph unicode="l" glyph-name="l" horiz-adv-x="373" d="M381 250L359 201Q297 125 249 76Q157 -17 81 -17Q47 -17 32 20T16 109Q16 142 22 165L172 789L242 823L249 821L83 203Q79 186 76 168T73 130Q73 89 85 64T127 38Q189 38 295 155Q329 193 375 252L381 250Z" />
<glyph unicode="m" glyph-name="m" horiz-adv-x="929" d="M936 163L915 129Q851 69 810 39Q737 -14 690 -14Q659 -14 643 1T626 40Q626 78 655 184T684 305Q684 338 677 369T664 400Q611 400 534 269Q467 155 430 36Q415 36 400 28Q377 14 355 0Q356 0 374 69Q396
150 410 218Q430 313 430 357Q430 379 427 389T414 400Q367 400 271 266Q190 153 126 24Q112 15 97 8T65 -2Q107 75 133 167T159 329Q159 371 149 393T114 416Q87 416 39 377Q9 353 2 350L14 381Q49 411 68 425Q126 470 138 470Q185 470 205 437Q222 409 222 358Q222
321 212 267Q207 244 203 222Q273 310 316 363Q397 463 434 463Q464 463 475 439T487 372Q487 342 483 308T475 243Q535 321 576 367Q653 454 702 454Q723 454 738 436T753 395Q753 389 752 386L698 85Q696 73 696 68Q696 47 705 35T737 22Q757 22 848 92Q878 115
936 163Z" />
<glyph unicode="n" glyph-name="n" horiz-adv-x="669" d="M677 141L663 110Q615 71 588 52Q505 -6 464 -6Q435 -6 420 18T405 77Q405 92 408 106L472 364Q474 374 474 385Q474 401 472 410Q466 434 448 434Q403 434 325 323Q302 291 194 116Q125 4 104 4Q97 0
77 0Q111 100 134 212Q154 312 154 364Q154 402 149 424Q141 457 123 457Q111 457 60 422Q43 411 10 386L-2 402Q56 451 92 477T149 503Q186 503 202 472Q214 449 214 418Q214 355 193 252Q186 218 172 161Q213 219 254 278Q321 368 371 417Q440 484 488 484Q510
484 526 466T543 423Q543 415 542 411L483 141Q481 131 480 118T478 88Q478 67 482 54T499 40Q532 40 585 73Q622 96 677 141Z" />
<glyph unicode="o" glyph-name="o" horiz-adv-x="439" d="M452 296Q452 192 342 90T124 -12Q76 -12 46 22T16 102Q16 190 111 290Q224 409 377 409Q404 409 428 371T452 296ZM384 278Q384 324 356 350T288 377Q222 377 156 292T89 123Q89 79 111 53T172 26Q226
26 302 109Q384 198 384 278Z" />
<glyph unicode="p" glyph-name="p" horiz-adv-x="503" d="M482 132Q482 59 409 22Q347 -9 251 -9Q234 -9 215 -8T166 -2Q130 -78 94 -155Q48 -245 -2 -289Q-66 -346 -152 -346Q-197 -346 -236 -321Q-284 -291 -284 -242Q-284 -233 -281 -222T-276 -203Q-255 -259
-220 -290T-147 -321Q-55 -321 16 -224Q75 -143 116 2Q81 2 55 12T29 44Q55 68 93 78L97 51L126 42L174 275L215 302Q180 307 153 307Q105 307 58 296L47 322Q83 333 120 339T192 346Q296 346 385 286Q482 221 482 132ZM426 110Q426 176 375 229T255 296L182 28Q229
17 276 17Q341 17 381 38Q426 62 426 110Z" />
<glyph unicode="q" glyph-name="q" horiz-adv-x="627" d="M663 449Q550 239 478 14Q412 -192 412 -298Q412 -305 416 -312Q425 -327 437 -327Q443 -327 449 -325Q455 -322 462 -320L454 -340L369 -379Q354 -379 348 -370T341 -346Q341 -276 370 -162Q390 -85 438
58Q449 91 511 267Q473 223 395 159Q306 85 231 40Q139 -16 91 -16Q58 -16 36 -3T14 36Q14 143 106 249Q182 337 296 401Q399 459 456 459Q478 459 529 448T588 432L603 451Q619 453 626 453Q632 453 641 452T663 449ZM540 350Q516 421 432 421Q318 421 196 300Q82
187 82 108Q82 70 90 56Q103 33 145 33Q217 33 347 145Q457 240 540 350Z" />
<glyph unicode="r" glyph-name="r" horiz-adv-x="542" d="M580 457L578 432Q551 401 515 379Q470 352 431 352Q406 352 384 372T350 421Q323 403 277 298Q245 225 205 112Q188 64 172 16Q156 4 152 1Q133 -11 115 -11Q107 -11 99 -8Q124 67 144 164T165 333Q165
391 150 424T101 457Q82 457 52 443T16 426Q16 431 24 444Q29 452 33 455Q57 469 85 479T136 489Q191 489 214 455Q232 429 232 380Q232 362 229 331T225 288Q268 368 298 410Q348 480 382 480Q395 480 420 438T472 395Q492 395 515 413Q570 456 580 457Z" />
<glyph unicode="s" glyph-name="s" horiz-adv-x="549" d="M549 428Q517 402 475 384Q467 404 466 404Q454 413 404 413Q337 413 291 397Q230 376 230 336Q230 297 303 258Q371 225 440 193Q515 153 515 113Q515 51 372 14Q267 -13 178 -13Q132 -13 77 6T21 48Q21
70 37 86T79 113Q75 103 74 97Q69 79 69 68Q69 57 126 39T241 20Q297 20 372 39T447 81Q447 117 373 156Q304 190 235 224Q160 268 160 314Q160 368 266 411T481 455Q500 455 516 453T549 445V428Z" />
<glyph unicode="t" glyph-name="t" horiz-adv-x="432" d="M445 428Q441 415 431 408T357 399T230 396L223 392Q207 356 192 320Q147 207 147 93Q147 70 179 52T240 33Q275 33 320 63Q356 87 389 123Q370 75 310 34T191 -8Q140 -8 107 18T73 95Q73 138 102 229T168
394L56 390Q47 401 43 415Q53 430 56 432L184 430L261 614L319 636L244 430L445 428Z" />
<glyph unicode="u" glyph-name="u" horiz-adv-x="607" d="M633 218Q596 155 567 114Q524 54 487 24Q441 -13 394 -13Q371 -13 354 -1Q329 16 329 51Q329 78 337 124Q355 227 355 235Q324 198 294 162Q230 86 183 47Q111 -12 55 -12Q37 -12 26 8T15 58Q15 90 36
170T80 332T103 447Q89 447 80 447T41 443Q52 457 65 466Q99 475 116 479Q147 487 166 487Q149 362 126 272T82 99Q82 73 89 52T108 31Q133 31 194 88Q261 151 322 242Q397 353 434 465Q467 475 495 475Q488 449 456 346T413 205Q394 132 394 92Q394 66 401 46T429
26Q456 26 497 68Q504 75 613 214L633 218Z" />
<glyph unicode="v" glyph-name="v" horiz-adv-x="499" d="M514 448Q514 413 448 326Q410 276 306 156Q207 42 172 -6L126 -19Q134 11 139 62T144 161Q144 264 127 339T78 414Q69 414 55 407T27 394H16L21 411Q44 429 58 438Q101 466 124 466Q181 466 202 368Q215
306 215 177V117H223Q332 226 402 310Q467 388 467 410Q467 423 445 423Q434 423 425 421T408 417Q410 436 433 449T484 462Q499 462 506 460T514 448Z" />
<glyph unicode="w" glyph-name="w" horiz-adv-x="723" d="M789 443L781 411L475 -12H468L416 328Q372 290 275 159Q188 42 162 -4L128 -17Q132 28 135 84T138 183Q138 278 124 331T77 384Q63 384 53 379T27 364L21 370Q40 396 51 409Q85 449 98 449Q187 449 200
281Q205 202 211 123L424 384L434 421L487 449Q487 367 496 281T524 108Q629 231 722 386Q730 415 733 439Q755 444 775 444Q785 443 789 443Z" />
<glyph unicode="x" glyph-name="x" horiz-adv-x="696" d="M706 434L481 212Q481 150 517 90Q558 22 616 22Q644 22 671 42H682Q670 18 644 7T586 -5Q534 -5 497 24Q451 60 420 147H410Q351 100 248 49Q120 -14 49 -14Q34 -14 20 -7T6 10Q6 14 18 20T41 26Q48 26
59 20T77 14Q149 14 249 72Q335 122 408 193Q374 316 364 346Q336 429 317 429Q307 429 286 420T261 409Q265 425 270 432Q291 447 310 455T351 463Q401 463 430 383Q449 315 468 248Q536 325 558 351Q566 361 609 417Q630 417 653 421T706 434Z" />
<glyph unicode="y" glyph-name="y" horiz-adv-x="574" d="M584 358Q518 163 453 -32Q374 -260 293 -363Q184 -502 22 -502Q-88 -502 -166 -433Q-250 -359 -250 -242Q-250 -165 -189 -92Q-165 -64 -104 -14Q-104 -26 -110 -38Q-144 -65 -168 -107Q-200 -162 -200
-222Q-200 -332 -107 -403Q-25 -466 76 -466Q177 -466 263 -345Q333 -246 392 -70Q434 56 472 227Q413 170 347 115Q268 48 199 3Q120 -49 86 -49Q67 -49 51 -37Q31 -22 31 0Q31 4 33 12L112 338Q149 360 187 368L106 46Q101 28 113 11T139 -6Q151 -6 221 44Q302
102 373 170Q466 259 511 336Q529 345 548 351T584 358Z" />
<glyph unicode="z" glyph-name="z" horiz-adv-x="686" d="M721 405Q721 385 655 372Q623 366 592 360Q585 358 506 292Q461 254 350 158Q260 79 240 59Q291 34 350 19T468 4Q533 4 579 32Q632 64 632 120Q632 131 628 141T615 151Q602 151 593 147T574 137Q577
156 598 171T642 186Q681 186 681 150Q681 88 600 27T430 -34Q401 -34 292 -9T130 16Q106 6 87 -1T56 -8Q45 -8 31 -1T16 20Q16 37 51 57T128 77Q145 77 162 75T197 70Q361 208 497 346Q432 346 378 347T268 350Q234 350 176 320Q157 310 124 290L126 310Q165 353
211 371Q265 392 360 392Q409 392 476 387T547 381Q569 381 614 403T675 425Q686 425 698 425Q721 422 721 405Z" />
<glyph unicode="{" glyph-name="braceleft" horiz-adv-x="407" d="M409 666L404 643Q260 643 213 561Q203 543 170 395Q147 293 69 264Q109 258 121 225Q126 211 126 174Q126 140 98 54T70 -72Q70 -109 114 -131T228 -154L223 -177L102 -175Q-4 -175 -4 -80Q-4
-38 23 55T50 188Q50 221 41 231T-5 245L1 272Q6 271 10 271Q14 271 15 271Q67 271 91 373Q130 539 141 563Q187 665 291 665L409 666Z" />
<glyph unicode="|" glyph-name="bar" horiz-adv-x="396" d="M217 -167H164V666H217V-167Z" />
<glyph unicode="}" glyph-name="braceright" horiz-adv-x="407" d="M338 574Q338 540 311 441T284 318Q284 290 290 282Q300 269 336 269L328 242Q260 242 232 138T176 -66Q128 -175 14 -175L-108 -177L-102 -154Q53 -154 102 -60Q106 -52 147 127Q172 238 264
261Q238 267 227 285T216 332Q216 367 241 451T266 570Q266 615 213 628Q189 634 115 643L122 666L239 665Q292 665 315 641T338 574Z" />
<glyph unicode="~" glyph-name="asciitilde" horiz-adv-x="539" d="M480 934Q476 924 467 913T447 893Q414 876 388 867T336 857Q318 857 305 861Q276 877 251 886T199 896Q156 896 125 865L139 891L211 941Q227 945 247 945Q254 945 266 943Q299 927 324 918Q363
904 392 904Q410 904 426 909T454 924T480 934Z" />
</font>
</defs>
</svg>
