<?xml version="1.0" encoding="UTF-8"?><svg xmlns="http://www.w3.org/2000/svg" width="187" height="64"><path fill="#f5efbc" stroke="#000" stroke-linecap="round" stroke-linejoin="round" stroke-width="3.404" d="M1.702 1.755h160.752v55.838H1.702l3.782-27.919z"/><path fill="#f5efbc" stroke="#000" stroke-linecap="round" stroke-linejoin="round" stroke-width="3.404" d="M136.002 8.872v46.57c0 3.787 11.007 6.856 24.585 6.856 13.579 0 24.586-3.07 24.586-6.856V8.872z"/><path fill="#f5efbc" stroke="#000" stroke-linecap="round" stroke-linejoin="round" stroke-width="3.404" d="M185.173 8.558c0 3.786-11.007 6.855-24.586 6.855-13.578 0-24.585-3.07-24.585-6.855 0-3.787 11.007-6.856 24.585-6.856 13.579 0 24.586 3.07 24.586 6.856z"/><path fill="#2e439b" stroke="#000" stroke-width="2.648" d="M184.136 9.862c-4.63 10.59-18.735 13.602-40.714 10.96l10.927 18.459-11.39 13.649c14.659 5.899 32.503 2.973 41.741-.349z"/><path fill="none" stroke="#000" stroke-linecap="round" stroke-linejoin="round" stroke-width="2.648" d="M164.074 6.806c-6.562-.193-15.16.034-19.815 1.47 2.289 1.85 11.559 2.956 18.812 2.336 6.057-.518 11.502-.248 15.013-2.175-1.336-2.095-7.448-6.388-14.975-6.168"/><path d="M45.58 34.616c-.776.204-1.253.409-1.433.612-.18.203-.27.612-.27 1.223v8.305a48.036 48.036 0 0 1-3.443 1.452 27.52 27.52 0 0 1-3.029.942c-.968.238-1.923.407-2.863.51a27.76 27.76 0 0 1-2.989.152c-2.461 0-4.688-.441-6.68-1.324a14.497 14.497 0 0 1-5.104-3.745c-1.41-1.614-2.504-3.558-3.278-5.834-.775-2.276-1.162-4.823-1.162-7.642 0-2.752.394-5.223 1.183-7.414.788-2.19 1.93-4.05 3.423-5.579 1.494-1.528 3.3-2.7 5.415-3.516 2.116-.815 4.502-1.222 7.158-1.223 1.023 0 1.985.042 2.884.128.899.086 1.777.221 2.635.409a20.94 20.94 0 0 1 2.573.738c.858.305 1.77.679 2.738 1.12l.25.562c-.083.475-.16.926-.228 1.35-.07.425-.139.908-.208 1.452-.07.543-.145 1.205-.228 1.987-.083.781-.18 1.783-.291 3.005h-1.619l-.206-4.381a9.373 9.373 0 0 0-1.266-1.3 5.805 5.805 0 0 0-.581-.433 6.703 6.703 0 0 0-.726-.407 12.988 12.988 0 0 0-2.864-1.02 13.523 13.523 0 0 0-3.07-.356c-3.403 0-6.044 1.248-7.926 3.745-1.881 2.497-2.822 6.02-2.822 10.572 0 2.446.27 4.662.81 6.649.539 1.987 1.293 3.694 2.261 5.12.968 1.428 2.144 2.532 3.527 3.313 1.384.78 2.905 1.171 4.565 1.171.885 0 1.721-.092 2.51-.28.788-.186 1.708-.517 2.76-.993V36.96c0-.68-.174-1.146-.52-1.4-.345-.255-.96-.417-1.845-.485l-2.2-.1v-2.09c.886.033 1.64.06 2.262.077.622.021 1.155.034 1.597.05.443.022.83.026 1.162.026h1.888c.346 0 .754 0 1.224-.025.471-.021 1.031-.034 1.681-.05.65-.022 1.432-.043 2.344-.078zm12.864-6.878c.416.069.81.102 1.183.102h3.714c.885 0 1.486-.075 1.805-.23.318-.152.505-.432.56-.84l.249-2.7h1.66c-.028.984-.049 1.783-.063 2.394-.014.612-.027 1.105-.041 1.478a24.702 24.702 0 0 0-.021 1.375l.125 5.503h-1.66l-.25-2.547c-.054-.68-.262-1.164-.621-1.453-.36-.289-.94-.433-1.743-.433h-2.116c-.471 0-.907 0-1.308.025-.401.021-.892.061-1.473.128v9.527c0 1.121.014 1.996.042 2.624.028.628.104 1.104.229 1.427.124.323.325.527.601.612.277.086.65.144 1.12.178l1.95.153v2.037c-.968-.034-1.805-.059-2.51-.076-.706-.02-1.328-.033-1.867-.05a35.16 35.16 0 0 0-1.39-.025h-2.241c-.388 0-.83 0-1.328.025-.499.021-1.073.034-1.723.05-.65.021-1.403.042-2.26.076V45.06l1.535-.153c.498-.034.878-.1 1.14-.203.263-.103.457-.307.581-.612.125-.306.201-.773.229-1.401a63.07 63.07 0 0 0 .042-2.625V19.28c0-1.12-.014-2.004-.042-2.65-.028-.645-.11-1.13-.249-1.452-.138-.322-.338-.534-.601-.637-.263-.102-.63-.186-1.1-.254l-1.535-.153V12.25c1.023.033 1.915.06 2.676.077.76.021 1.431.034 2.012.05.58.021 1.086.026 1.514.026h1.972c.221 0 .567 0 1.037-.025.47-.021 1.141-.034 2.013-.05.87-.022 2.095-.043 3.672-.078h2.116c.803 0 1.467 0 1.993.025.525.02 1.175.058 1.95.126l.249.357-.582 7.235h-1.493l-.333-3.822c-.027-.306-.448-.543-1.265-.713-.816-.17-1.93-.254-3.34-.254h-1.08c-.331 0-.677 0-1.036.025-.36.021-.754.034-1.183.05-.43.021-.934.042-1.515.078zM75.152 45.01c.304-.205.518-.526.643-.968.125-.442.187-1.087.187-1.936V19.281c0-1.12-.014-2.004-.041-2.65-.028-.646-.11-1.13-.25-1.452-.138-.322-.338-.535-.601-.637-.263-.103-.63-.186-1.1-.254l-1.535-.153V12.25c2.02.07 3.534.111 4.544.128 1.01.021 1.75.025 2.22.025l4.273-.05a507.1 507.1 0 0 1 3.341-.078c.927-.02 1.64-.025 2.138-.025 2.793 0 5.096.34 6.908 1.02a10.7 10.7 0 0 1 4.544 3.21c1.052 1.256 1.847 2.844 2.386 4.763.54 1.92.81 4.101.81 6.547 0 5.503-1.425 9.97-4.274 13.4-1.577 1.902-3.452 3.362-5.624 4.381a16.068 16.068 0 0 1-6.908 1.529h-1.12c-.443 0-.914-.021-1.412-.05a84.832 84.832 0 0 0-3.983-.103c-.61 0-1.39.02-2.345.05-.955.034-2.33.067-4.129.1v-1.17zm6.68-.968c.526.103.983.172 1.37.205.388.034.858.05 1.411.05 2.38 0 4.336-.28 5.872-.84a8.829 8.829 0 0 0 3.879-2.776c2.02-2.446 3.03-6.268 3.03-11.464 0-2.548-.222-4.697-.664-6.446-.443-1.749-1.134-3.184-2.075-4.305a6.76 6.76 0 0 0-1.14-1.198 8.175 8.175 0 0 0-1.267-.84c-.913-.476-2.081-.866-3.506-1.172a20.609 20.609 0 0 0-4.336-.459c-.499 0-.934.021-1.307.05-.374.034-.796.086-1.267.153zm34.693-.052c1.106.07 2.122.112 3.05.128.926.021 2.026.026 3.298.026.443 0 .899-.026 1.37-.078.47-.05.898-.12 1.286-.203.387-.084.705-.178.955-.28.249-.103.387-.203.415-.306l.953-5.198h1.619l-.456 8.459-.208.407c-.58.034-1.106.07-1.576.103a40.481 40.481 0 0 1-2.719.101h-1.515c-1.88 0-4.121-.05-6.721-.153a37.87 37.87 0 0 0-1.577-.05h-1.929c-.291 0-.63 0-1.018.024-.387.021-.844.034-1.37.05-.525.022-1.147.043-1.867.076v-1.17l1.329-.918c.304-.205.518-.519.642-.943.125-.425.187-1.078.187-1.961V19.278c0-1.12-.013-1.995-.04-2.624-.028-.629-.104-1.096-.229-1.402-.124-.306-.318-.5-.581-.585-.263-.084-.644-.161-1.142-.23l-1.535-.153v-2.038c.858.034 1.612.06 2.262.078.65.02 1.224.033 1.722.05.498.02.941.025 1.328.025h2.261c.401 0 .85 0 1.349-.025.498-.021 1.065-.034 1.701-.05.636-.021 1.397-.042 2.283-.078v2.038l-1.536.153c-.498.07-.878.145-1.14.23-.264.084-.457.28-.582.585-.124.306-.2.773-.228 1.402a63.989 63.989 0 0 0-.041 2.624z"/></svg>
