<?xml version="1.0" encoding="UTF-8"?><svg xmlns="http://www.w3.org/2000/svg" version="1.1" width="160" height="64" viewBox="0 0 160 64" preserveAspectRatio="none"><path fill="#bd0000" d="M149.87 0l-.035.002c-2.831.204-6.794 1.07-10.285 2.512H13.642L0 62.032h88.738c1.883 1.096 4.17 1.733 6.724 1.956l.041.004 4.466.008.039-.003a39.128 39.128 0 0 0 4.457-.62c2.655-.519 5.456-1.313 8.358-2.371a74.391 74.391 0 0 0 6.738-2.848c4.979-2.386 10.11-5.458 15.143-9.163a99.837 99.837 0 0 0 4.776-3.744 95.168 95.168 0 0 0 4.029-3.546l.006-.005.006-.006c3.607-3.476 6.347-7.01 7.936-10.204.828-1.664 1.347-3.237 1.476-4.698.13-1.46-.15-2.842-.97-3.926h-.001c-.602-.797-1.447-1.323-2.417-1.67 3.158-2.593 5.728-5.362 7.414-8.071 1.969-3.165 2.847-6.301 1.886-8.94v-.001c-.615-1.696-2.007-2.97-3.837-3.63-.813-.293-1.702-.47-2.651-.55L152.316 0z"/><path fill="#fff" d="M149.956 1.96c-3.137.23-8.23 1.47-11.786 3.362a38.95 38.95 0 0 0-.982.465 44.805 44.805 0 0 0-2.905 1.569 46.31 46.31 0 0 0-7.023 5.025c-2.84 2.484-5.12 5.158-6.52 7.722l-.944 1.728 1.642-1.091.086-.049.466-.306c3.416-2.221 6.785-4.006 9.72-5.21 3.557-1.457 6.485-2.066 8.089-1.556.502.16.827.425.98.809.812 2.038-3.078 7.53-10.773 13.335a59.934 59.934 0 0 0-4.964 3.383 59.44 59.44 0 0 0-3.003 2.427 65.36 65.36 0 0 0-1.753 1.568c.694-.322 1.38-.625 2.06-.919 8.444-3.658 15.414-5.023 16.41-3.003.209.42.135.954-.17 1.581-1.397 2.884-7.847 7.682-16.24 11.852-.067.036-.13.067-.197.099-.651.31-1.297.6-1.937.882-2.659 1.169-5.24 2.117-7.672 2.82-.533.152-1.05.299-1.569.428-7.612 1.914-13.62 1.298-16.043-2.267a6.699 6.699 0 0 1-.577-1.055c-2.255-5.36 2.708-14.507 12.098-23.336 2.918-2.743 6.261-5.458 9.952-8.016.235-.163.472-.328.71-.49 6.653-4.518 13.385-7.838 19.378-9.793-6.271 1.588-13.348 4.713-20.444 9.18a95.012 95.012 0 0 0-5.76 3.91 96.718 96.718 0 0 0-4.45 3.493C99.467 25.8 94.323 31.502 90.773 36.943c-3.341 5.12-5.27 10.01-5.466 14.12-.07 1.475.086 2.859.478 4.106.149.392.297.78.454 1.164.247.522.529 1.02.87 1.483 1.838 2.501 4.923 3.873 8.83 4.215l3.947.007a37.2 37.2 0 0 0 4.204-.586c2.54-.496 5.245-1.262 8.062-2.29a72.452 72.452 0 0 0 6.561-2.772h.001c4.86-2.33 9.891-5.34 14.829-8.975a98.486 98.486 0 0 0 4.684-3.671 93.21 93.21 0 0 0 3.94-3.47c3.481-3.355 6.093-6.76 7.535-9.658.752-1.51 1.18-2.88 1.279-3.998.099-1.116-.11-1.945-.582-2.57-.578-.764-1.588-1.239-3.122-1.358l-2.594-.2 2.08-1.562c3.77-2.827 6.737-5.955 8.532-8.84s2.355-5.459 1.708-7.235L157 4.851c-.407-1.123-1.264-1.95-2.657-2.454-.614-.22-1.33-.368-2.128-.437zm-65.937.64c-2.883 7.081-4.288 16.839-3.652 27.602.086 1.482.215 2.982.38 4.498.58 5.294 1.605 10.285 2.966 14.843.474-4.056 2.356-8.719 5.576-13.654.2-.31.414-.62.626-.931a132.24 132.24 0 0 1-1.055-3.187 133.135 133.135 0 0 1-1.507-5.172c-2.581-9.54-3.718-18.133-3.334-23.999zm-64.261 7.636c-1.102.026-2.056.255-2.868.662-.032.016-.067.02-.098.037-.89.469-1.404 1.076-1.569 1.814L8.837 41.613c-.164.739.094 1.335.772 1.802.683.467 1.641.698 2.88.698h14.488c1.24 0 2.3-.231 3.187-.698.639-.337 1.097-.748 1.36-1.226a2.04 2.04 0 0 0 .22-.576l3.188-14.438H23.815l-.576 2.61h6.005l-2.561 11.57-.013.05H13.887l1.667-7.563 4.62-20.885H32.97l-1.679 7.6h5.111l1.729-7.808c.16-.738-.094-1.345-.773-1.814-.682-.467-1.64-.699-2.88-.699h-14.5c-.074 0-.147-.002-.22 0zm22.723 0l-7.12 32.161-.38 1.716h5l.417-1.9 2.561-11.558h13.262c1.228 0 2.28-.239 3.175-.71.894-.47 1.42-1.069 1.58-1.802l3.408-15.394c.165-.738-.098-1.345-.784-1.814-.683-.467-1.645-.699-2.869-.699h-18.25zm25.212 0l-6.079 27.455-1.422 6.422h17.993a71.195 71.195 0 0 1-.43-2.708h-11.96l1.237-5.59 5.663-25.579h-5.001zm-20.811 2.721h12.452l-3.309 14.977H43.56l3.322-14.977zm-10.48 33.51a4.22 4.22 0 0 0-1.348.269 3.012 3.012 0 0 0-1.201.821c-.31.353-.51.749-.6 1.165-.087.388-.073.744.06 1.066.134.326.391.597.748.81.263.16.715.32 1.385.49l1.201.355c.232.094.38.205.454.33.067.118.076.261.037.43-.04.188-.13.362-.282.527a1.65 1.65 0 0 1-.65.392c-.278.102-.59.16-.931.16-.38 0-.714-.068-.98-.197-.252-.122-.409-.277-.49-.465-.087-.196-.122-.46-.087-.785l.012-.172h-1.41l-.036.172c-.106.545-.066 1.044.123 1.483.196.451.53.798.992 1.017.444.212 1.01.32 1.716.32.557 0 1.1-.116 1.594-.32a3.285 3.285 0 0 0 1.237-.882c.33-.377.552-.778.65-1.213.098-.448.063-.86-.098-1.214-.16-.357-.468-.646-.907-.87-.29-.145-.804-.314-1.58-.503-.859-.202-1.135-.36-1.215-.429l-.012-.012c-.062-.07-.153-.202-.098-.454.055-.247.224-.453.49-.637.275-.188.677-.282 1.214-.282.405 0 .719.07.92.197a.8.8 0 0 1 .122.098c.02.02.044.05.061.073.13.182.172.448.135.785l-.012.171h1.434l.037-.184c.09-.482.046-.923-.123-1.311-.173-.4-.484-.703-.92-.907-.407-.192-.914-.295-1.495-.295-.049 0-.098-.002-.147 0zm12.87.024a2.054 2.054 0 0 0-.87.245 1.85 1.85 0 0 0-.675.662c-.117.196-.207.478-.294.87 0 0-.058.212-.098.38h-.809l-.27 1.214h.822c-.118.521-1.042 4.67-1.042 4.67h1.422l1.041-4.67h1.03l.27-1.214h-1.054l.049-.196c.052-.25.125-.388.184-.466a.44.44 0 0 1 .049-.049c.006-.005.018-.02.024-.024.096-.067.242-.098.441-.098l.674.061.086-.172.43-1.09-.295-.025-.882-.098c-.083 0-.156-.006-.233 0zm3.395.061l-.466.246-1.14.6s-.22.968-.282 1.25h-.674l-.27 1.214h.675c-.11.486-.625 2.794-.625 2.794-.114.518-.148.816-.148.993 0 .09.017.153.025.196a.867.867 0 0 0 .392.564c.204.133.486.196.87.196l.968-.11-.012-.197.074-1.09-.674.049-.147-.012h-.013v-.025c0-.09.05-.404.05-.404s.587-2.617.661-2.954h.92l.27-1.214h-.92l.466-2.096zm-45.166.05l-1.765 7.93H7.22s.674-3.03.748-3.371h3.493l.307-1.373H8.273c.09-.408.342-1.535.405-1.814h4.033l.306-1.373zm7.391 1.936a1.517 1.517 0 0 0-.589.208c-.054.036-.12.1-.183.147.015-.066.061-.245.061-.245h-1.324l-1.31 5.884h1.42l.663-3.016c.082-.364.202-.703.367-1.005.094-.176.219-.306.368-.404a.765.765 0 0 1 .429-.147c.173 0 .337.049.49.147l.209.147.76-1.25-.197-.135a1.668 1.668 0 0 0-.992-.331c-.056 0-.117-.007-.172 0zm4.216 0a3.169 3.169 0 0 0-1.875.797c-.616.533-1.039 1.298-1.25 2.255-.212.941-.127 1.69.27 2.23.4.553 1.045.834 1.912.834a3.25 3.25 0 0 0 1.777-.503 3.368 3.368 0 0 0 1.201-1.372l.135-.295h-1.52c-.192.322-.41.554-.637.7-.24.152-.495.232-.785.232a1.09 1.09 0 0 1-.6-.16.922.922 0 0 1-.221-.22c-.133-.176-.196-.417-.196-.723 0-.075.004-.163.012-.245h3.996l.11-.429c.074-.341.11-.654.11-.944 0-.525-.133-.967-.38-1.324-.396-.553-1.002-.833-1.802-.833-.087 0-.171-.006-.257 0zm6.386 0a3.2 3.2 0 0 0-1.887.797c-.616.533-1.027 1.302-1.239 2.255a4.421 4.421 0 0 0-.11.894c0 .534.121.983.38 1.336.4.553 1.045.834 1.912.834.667 0 1.272-.177 1.778-.503.505-.325.91-.784 1.2-1.372l.148-.295h-1.533c-.192.322-.41.554-.637.7a1.407 1.407 0 0 1-.784.232c-.326 0-.58-.102-.76-.294-.022-.025-.041-.059-.062-.086-.106-.141-.164-.328-.183-.552-.004-.054-.012-.112-.012-.171V52.3c0-.022-.003-.053 0-.074.003-.055.008-.104.012-.159h3.996l.11-.441c.074-.337.11-.646.11-.932 0-.525-.133-.967-.38-1.324-.396-.553-1.002-.833-1.802-.833-.087 0-.172-.006-.257 0zm17.392 0a3.313 3.313 0 0 0-1.704.637c-.706.514-1.186 1.315-1.422 2.366-.078.345-.11.653-.11.943 0 .538.134.987.393 1.336.4.55 1.019.834 1.85.834.506 0 1.009-.12 1.483-.356a3.35 3.35 0 0 0 1.201-1.005c.318-.423.55-1.006.711-1.728.208-.925.11-1.66-.294-2.206-.408-.545-1.035-.821-1.85-.821-.09 0-.17-.007-.258 0zm21.535 0a4.1 4.1 0 0 0-1.03.196c-.412.141-.767.342-1.03.6-.262.26-.473.598-.649 1.006l-.135.294h1.483c.157-.318.335-.54.528-.662.196-.122.477-.184.857-.184.336 0 .588.055.736.172a.635.635 0 0 1 .049.049c.005.005.02.018.024.024.062.098.07.287.012.54 0 0-.016.046-.024.085-.36.106-.862.204-1.532.282l-.87.147c-.283.07-.554.174-.797.319a2.296 2.296 0 0 0-.662.588 2.041 2.041 0 0 0-.38.822 1.975 1.975 0 0 0-.049.416c0 .35.103.656.33.907.299.342.793.515 1.46.515.384 0 .762-.07 1.127-.196a4.4 4.4 0 0 0 .797-.404c.008.098 0 .208.024.294l.061.184h1.447l-.098-.32a1.579 1.579 0 0 1-.061-.563c.011-.145.062-.533.294-1.569l.27-1.213.147-.895c0-.302-.063-.548-.184-.748-.126-.211-.348-.389-.662-.514-.294-.122-.683-.172-1.177-.172-.107 0-.203-.006-.306 0zm6.214 0a1.45 1.45 0 0 0-.576.208c-.06.036-.121.1-.184.147.016-.066.049-.245.049-.245H68.6l-1.311 5.884h1.422l.674-3.016c.082-.364.207-.703.367-1.005a1.09 1.09 0 0 1 .356-.404.813.813 0 0 1 .441-.147c.169 0 .325.049.478.147l.208.147.76-1.25-.183-.135a1.694 1.694 0 0 0-1.005-.331c-.056 0-.117-.007-.172 0zm4.207 0a3.2 3.2 0 0 0-1.887.797c-.616.533-1.026 1.302-1.238 2.255a4.408 4.408 0 0 0-.11.894c0 .534.12.983.38 1.336.4.553 1.044.834 1.911.834.667 0 1.272-.177 1.778-.503a3.36 3.36 0 0 0 1.2-1.372l.148-.295h-1.532c-.192.322-.41.554-.637.7a1.407 1.407 0 0 1-.785.232c-.326 0-.58-.102-.76-.294-.022-.025-.041-.059-.061-.086-.106-.141-.164-.328-.184-.552-.004-.054-.012-.112-.012-.171V52.3c0-.022-.003-.053 0-.074l.012-.159h3.996l.11-.441a4.32 4.32 0 0 0 .11-.932c0-.525-.132-.967-.38-1.324-.396-.553-1.001-.833-1.801-.833-.088 0-.172-.006-.258 0zm-21.465.11l.466 5.884h1.348l1.643-3.371.135 3.37h1.311l3.187-5.883H60.02s-1.787 3.398-1.826 3.469l-.123-3.469h-1.336l-1.606 3.297c-.005.015-.051.12-.11.246-.004-.051-.184-3.543-.184-3.543h-1.459zm-34.244 1.115h.073c.38 0 .637.135.81.417.07.118.11.292.11.515 0 .04-.009.092-.013.135H17.7c.121-.27.275-.518.502-.699.287-.231.594-.353.932-.368zm6.385 0h.074c.297 0 .522.089.686.258a.986.986 0 0 1 .123.16c.074.117.11.29.11.514 0 .04-.008.092-.012.135h-2.414c.125-.27.274-.518.502-.699.287-.231.594-.353.931-.368zm49.349 0h.073c.298 0 .523.089.686.258a.983.983 0 0 1 .123.16c.075.117.11.29.11.514 0 .04-.007.092-.011.135h-2.415c.125-.27.275-.518.502-.699.287-.231.594-.353.932-.368zm-32.067.025c.06-.007.122 0 .184 0 .365 0 .629.13.81.404.187.283.206.728.072 1.324-.145.651-.385 1.137-.722 1.446-.334.306-.683.454-1.08.454-.304 0-.548-.097-.722-.282a1.088 1.088 0 0 1-.098-.122c-.106-.165-.16-.384-.16-.662 0-.204.027-.432.086-.699.141-.635.386-1.116.723-1.422.282-.255.583-.402.907-.44zm22.148 2.145c-.083.33-.177.583-.294.748-.161.231-.38.43-.65.563a1.949 1.949 0 0 1-.882.197c-.283 0-.479-.05-.577-.16a.441.441 0 0 1-.036-.049c-.007-.01-.02-.027-.025-.036-.005-.01-.008-.027-.012-.037l-.012-.025a.486.486 0 0 1-.013-.061v-.049a.84.84 0 0 1 .013-.135.727.727 0 0 1 .171-.319.874.874 0 0 1 .331-.232c.153-.06.416-.117.785-.172a9.228 9.228 0 0 0 1.2-.233z"/></svg>
