<?xml version="1.0" encoding="UTF-8"?><svg xmlns="http://www.w3.org/2000/svg" width="160" height="64"><path fill="#fff" d="M149.906.98c-2.076.15-4.743.673-7.45 1.536H13.642L0 62.034h91.03c1.345.508 2.854.841 4.517.986h4.385a38.252 38.252 0 0 0 4.345-.605c2.597-.508 5.35-1.287 8.21-2.329a73.423 73.423 0 0 0 6.65-2.81c4.92-2.36 10-5.4 14.986-9.07a99.472 99.472 0 0 0 8.719-7.217c3.546-3.417 6.22-6.889 7.736-9.936 1.58-3.174 1.896-5.887.602-7.596-.792-1.05-2.12-1.612-3.828-1.744 7.695-5.774 12.18-12.779 10.572-17.195-.51-1.41-1.636-2.459-3.248-3.041-.717-.258-1.524-.422-2.403-.496z"/><path fill="#bd0000" d="M13.642 2.515L0 62.033h95.945c-3.91-.341-6.998-1.714-8.837-4.216a8.903 8.903 0 0 1-.87-1.483 51.268 51.268 0 0 1-.454-1.165c-.392-1.247-.549-2.631-.478-4.106.196-4.11 2.125-9 5.466-14.12 3.55-5.44 8.694-11.143 15.064-16.436a96.71 96.71 0 0 1 4.449-3.493 95.01 95.01 0 0 1 5.76-3.91c7.096-4.466 14.173-7.592 20.445-9.18-5.993 1.955-12.726 5.275-19.378 9.793-.24.162-.476.327-.71.49-3.692 2.558-7.035 5.274-9.953 8.016C97.059 31.052 92.096 40.2 94.35 45.56c.161.369.353.72.576 1.054 2.424 3.565 8.432 4.181 16.044 2.267a46.634 46.634 0 0 0 1.57-.429c2.431-.702 5.013-1.65 7.672-2.819.64-.282 1.285-.572 1.936-.882.067-.031.13-.063.197-.098 8.393-4.17 14.843-8.97 16.24-11.852.305-.627.379-1.162.171-1.581-.996-2.02-7.967-.656-16.411 3.003-.679.294-1.365.596-2.06.919a65.384 65.384 0 0 1 1.753-1.569 59.447 59.447 0 0 1 3.003-2.427 59.934 59.934 0 0 1 4.964-3.383c7.695-5.805 11.585-11.297 10.773-13.335-.152-.384-.478-.648-.98-.809-1.604-.51-4.532.099-8.09 1.557-2.933 1.203-6.303 2.988-9.719 5.209l-.466.306-.085.05-1.643 1.09.944-1.728c1.4-2.563 3.68-5.237 6.52-7.722a46.312 46.312 0 0 1 7.023-5.025 44.813 44.813 0 0 1 2.905-1.569 41.746 41.746 0 0 1 2.954-1.299c2.815-1.113 5.501-1.79 7.844-1.973H13.642zm70.377.086c-.384 5.866.753 14.458 3.334 23.998.459 1.697.958 3.425 1.507 5.172.342 1.08.694 2.141 1.055 3.187-.212.311-.426.62-.626.931-3.22 4.935-5.102 9.599-5.576 13.654-1.361-4.557-2.386-9.55-2.966-14.842a90.308 90.308 0 0 1-.38-4.499c-.636-10.763.77-20.52 3.652-27.601zm-64.261 7.635h14.72c1.24 0 2.198.233 2.88.699.679.47.933 1.076.772 1.814l-1.728 7.807h-5.11l1.678-7.599H20.174l-4.62 20.886-1.667 7.562H26.67l.013-.05 2.561-11.57H23.24l.576-2.61H34.93l-3.186 14.438a2.04 2.04 0 0 1-.221.576c-.263.479-.721.889-1.36 1.226-.887.467-1.948.699-3.187.699H12.489c-1.239 0-2.197-.232-2.88-.699-.678-.467-.937-1.063-.772-1.802l6.386-28.864c.164-.738.678-1.345 1.569-1.814.03-.017.066-.02.098-.037.812-.407 1.766-.636 2.868-.662zm22.723 0h18.25c1.224 0 2.186.233 2.869.699.686.47.949 1.076.784 1.814l-3.407 15.394c-.161.734-.687 1.332-1.581 1.802-.895.471-1.947.71-3.175.71H42.96l-2.561 11.559-.417 1.9h-5l.38-1.716 7.12-32.162zm25.212 0h5.001a65422979.304 65422979.304 0 0 1-6.9 31.169h11.962c.125.917.272 1.818.429 2.709H60.192l1.422-6.423 6.08-27.455zm-20.811 2.721L43.56 27.935h12.465l3.31-14.978H46.881zm-10.48 33.51c.05-.002.098 0 .147 0 .58 0 1.088.102 1.496.294.435.204.746.507.919.907.168.388.213.83.122 1.312l-.036.183h-1.434l.012-.171c.037-.337-.005-.602-.135-.785a.832.832 0 0 0-.061-.073.8.8 0 0 0-.123-.098c-.2-.127-.514-.196-.92-.196-.536 0-.938.093-1.213.282-.266.184-.435.39-.49.637-.055.25.036.383.098.453l.013.013c.079.067.355.226 1.213.429.777.188 1.29.357 1.581.502.44.224.746.513.907.87.16.353.196.767.098 1.214-.098.435-.32.837-.65 1.213-.325.377-.74.675-1.237.883a4.185 4.185 0 0 1-1.594.318c-.706 0-1.273-.107-1.716-.318a1.977 1.977 0 0 1-.992-1.018c-.189-.439-.229-.938-.123-1.483l.037-.171h1.41l-.013.171c-.035.326 0 .589.086.785.082.188.239.344.49.466.267.129.6.196.98.196.342 0 .654-.058.932-.16.275-.098.493-.227.65-.392.153-.165.242-.339.282-.527.039-.169.03-.311-.037-.429-.075-.125-.222-.237-.454-.33l-1.2-.356c-.672-.169-1.123-.33-1.386-.49-.357-.212-.614-.484-.748-.81-.133-.321-.147-.678-.06-1.066.09-.416.29-.811.6-1.164a3.013 3.013 0 0 1 1.2-.821 4.22 4.22 0 0 1 1.35-.27zm12.87.024c.077-.006.15 0 .232 0l.883.098.294.025-.429 1.09-.086.172-.674-.06c-.199 0-.345.03-.441.097l-.025.025a.442.442 0 0 0-.049.049c-.059.077-.13.215-.183.465l-.05.197H49.8l-.27 1.213H48.5l-1.041 4.67h-1.422s.924-4.148 1.042-4.67h-.822l.27-1.213h.809c.04-.169.098-.38.098-.38.086-.393.177-.674.294-.87.161-.271.388-.498.674-.662.236-.137.534-.22.87-.246zm3.395.062l-.466 2.096h.92l-.27 1.213h-.92c-.074.337-.662 2.954-.662 2.954s-.049.314-.049.404v.025h.013l.147.012.674-.049-.074 1.09.013.197-.969.11c-.384 0-.666-.062-.87-.196a.867.867 0 0 1-.392-.564c-.008-.043-.025-.105-.025-.196 0-.176.034-.475.147-.992 0 0 .516-2.309.626-2.795h-.675l.27-1.213h.674l.282-1.25a135960.168 135960.168 0 0 0 1.606-.846zM7.5 46.602h5.516l-.307 1.372H8.678l-.405 1.814h3.493l-.306 1.373H7.967l-.748 3.37H5.736l1.765-7.93zm7.39 1.936c.056-.007.117 0 .172 0 .353 0 .68.108.993.331l.196.135-.76 1.25-.208-.147a.896.896 0 0 0-.49-.147.765.765 0 0 0-.43.147 1.083 1.083 0 0 0-.367.405c-.165.302-.285.64-.368 1.005l-.662 3.015h-1.421l1.311-5.883h1.324s-.046.178-.061.245c.062-.047.129-.112.183-.147a1.52 1.52 0 0 1 .589-.209zm4.217 0c.086-.006.17 0 .257 0 .8 0 1.406.28 1.802.834.247.357.38.798.38 1.323 0 .29-.036.603-.11.944l-.11.43H17.33c-.008.082-.012.17-.012.244 0 .306.062.547.196.723a.923.923 0 0 0 .22.221c.158.103.362.16.6.16.291 0 .546-.08.785-.233.228-.146.445-.377.638-.7h1.52l-.135.295a3.368 3.368 0 0 1-1.201 1.373 3.25 3.25 0 0 1-1.778.502c-.866 0-1.512-.28-1.912-.833-.396-.541-.481-1.29-.27-2.23.212-.958.635-1.723 1.25-2.256a3.167 3.167 0 0 1 1.876-.797zm6.386 0c.085-.006.17 0 .257 0 .8 0 1.406.28 1.802.834.247.357.38.798.38 1.323 0 .287-.036.595-.11.932l-.11.441h-3.996l-.013.16c-.003.02.002.051 0 .073v.012c0 .06.009.117.013.172.02.223.078.41.183.551.02.028.04.062.062.086.18.192.434.294.76.294.29 0 .549-.08.784-.232.228-.146.445-.377.637-.7h1.532l-.147.295a3.368 3.368 0 0 1-1.2 1.373 3.25 3.25 0 0 1-1.778.502c-.867 0-1.512-.28-1.912-.833-.259-.353-.38-.803-.38-1.336a4.428 4.428 0 0 1 .11-.895c.212-.953.622-1.722 1.238-2.255a3.201 3.201 0 0 1 1.888-.797zm17.392 0c.087-.006.168 0 .257 0 .816 0 1.443.276 1.851.821.404.546.502 1.281.294 2.207-.16.721-.393 1.304-.71 1.728-.318.423-.723.77-1.202 1.005a3.327 3.327 0 0 1-1.483.355c-.831 0-1.45-.284-1.85-.833-.26-.35-.393-.799-.393-1.336 0-.29.032-.599.11-.944.236-1.051.716-1.852 1.422-2.365a3.312 3.312 0 0 1 1.704-.638zm21.535 0c.103-.006.199 0 .306 0 .494 0 .883.05 1.177.172.314.125.536.303.662.515.121.2.184.445.184.747l-.148.895-.27 1.213c-.23 1.036-.282 1.424-.293 1.57a1.58 1.58 0 0 0 .06.563l.099.319h-1.446l-.062-.184c-.023-.086-.016-.196-.024-.294a4.4 4.4 0 0 1-.797.404 3.462 3.462 0 0 1-1.127.196c-.667 0-1.16-.173-1.459-.514a1.303 1.303 0 0 1-.33-.907c0-.134.017-.272.048-.417.067-.298.188-.574.38-.821a2.28 2.28 0 0 1 .662-.589 2.92 2.92 0 0 1 .797-.318l.87-.147c.67-.079 1.171-.176 1.532-.282a.73.73 0 0 1 .024-.086c.057-.252.05-.442-.012-.54-.004-.006-.02-.019-.024-.024-.014-.014-.034-.036-.05-.049-.147-.117-.398-.172-.735-.172-.38 0-.662.063-.858.184-.192.122-.37.344-.527.662h-1.483l.135-.294c.177-.408.387-.746.65-1.005.262-.259.617-.46 1.03-.6.315-.105.66-.174 1.029-.197zm6.214 0c.055-.007.116 0 .171 0 .357 0 .692.108 1.006.331l.183.135-.76 1.25-.208-.147a.866.866 0 0 0-.478-.147.812.812 0 0 0-.441.147 1.088 1.088 0 0 0-.356.405c-.16.302-.285.64-.367 1.005l-.674 3.015h-1.422l1.311-5.883h1.324s-.033.178-.049.245c.063-.047.125-.112.184-.147.187-.114.378-.184.576-.209zm4.204 0c.085-.006.17 0 .257 0 .8 0 1.41.28 1.802.834.251.357.38.798.38 1.323 0 .29-.048.603-.123.944l-.098.43h-3.995c-.008.082-.025.17-.025.244 0 .306.067.547.196.723.02.028.052.062.074.086l.049.05c.175.159.414.244.71.244.291 0 .546-.08.785-.232.228-.146.441-.377.637-.7h1.533l-.148.295a3.406 3.406 0 0 1-1.2 1.373 3.25 3.25 0 0 1-1.778.502c-.867 0-1.5-.28-1.9-.833-.396-.541-.49-1.29-.282-2.23.212-.958.623-1.723 1.238-2.256a3.212 3.212 0 0 1 1.888-.797zm-21.461.11h1.458s.18 3.492.184 3.543a6.77 6.77 0 0 0 .11-.245l1.606-3.297h1.336l.122 3.468c.04-.07 1.827-3.468 1.827-3.468h1.446l-3.187 5.883H56.97l-.135-3.37-1.642 3.37h-1.349l-.465-5.883zm-34.245 1.116a1.554 1.554 0 0 0-.932.368c-.227.18-.38.428-.502.698h2.414c.004-.043.012-.095.012-.135 0-.223-.04-.397-.11-.514-.173-.283-.428-.417-.809-.417h-.073zm6.385 0a1.554 1.554 0 0 0-.931.368c-.228.18-.377.428-.503.698H26.5c.004-.043.012-.095.012-.135 0-.223-.036-.397-.11-.514a.986.986 0 0 0-.123-.16c-.164-.169-.389-.257-.686-.257h-.074zm49.394 0c-.347.01-.671.128-.968.368-.223.18-.377.428-.502.698h2.402c.004-.043.012-.095.012-.135 0-.223-.036-.397-.11-.514-.169-.279-.429-.413-.81-.417h-.024zm-32.112.024c-.324.039-.626.187-.907.442-.337.306-.582.786-.723 1.421a3.246 3.246 0 0 0-.086.7c0 .278.054.496.16.661.028.042.065.087.098.123.174.185.417.281.723.281.396 0 .745-.147 1.078-.453.338-.31.578-.795.723-1.446.134-.597.115-1.042-.073-1.324-.18-.275-.444-.405-.809-.405-.062 0-.124-.007-.184 0zm22.148 2.145a9.22 9.22 0 0 1-1.201.233c-.369.055-.632.113-.785.172a.874.874 0 0 0-.33.233.726.726 0 0 0-.172.318.86.86 0 0 0-.013.135v.049a.504.504 0 0 0 .013.062l.012.024c.004.01.007.027.012.037l.025.037c.01.014.024.035.037.049.098.11.293.159.576.159.31 0 .608-.059.882-.196.27-.134.489-.333.65-.564.117-.165.211-.418.294-.748z"/><path fill="none" stroke="#bd0000" stroke-width="1.961" d="M84.952 55.865c.16.41.319.818.485 1.218.255.543.55 1.063.905 1.548 1.917 2.606 5.128 4.033 9.205 4.388h4.385c1.386-.108 2.84-.31 4.345-.604 2.597-.508 5.35-1.288 8.21-2.33a73.423 73.423 0 0 0 6.65-2.81c4.92-2.359 10.001-5.4 14.987-9.07a99.471 99.471 0 0 0 8.717-7.217c3.546-3.417 6.222-6.888 7.738-9.935 1.58-3.174 1.894-5.887.6-7.596-.792-1.05-2.119-1.612-3.827-1.744 7.695-5.774 12.18-12.779 10.571-17.195-.51-1.41-1.635-2.46-3.247-3.042-.717-.258-1.523-.421-2.402-.495h-2.368c-3.307.238-8.116 1.422-12.196 3.422"/></svg>
